<svg width="55" height="52" viewBox="0 0 55 52" fill="none" xmlns="http://www.w3.org/2000/svg">
<path d="M27.8926 41.4919C27.3432 41.4919 26.7937 41.2875 26.3657 40.8722C24.1487 38.7192 16.8526 31.4039 16.0476 27.8964C15.6515 26.1778 16.7568 22.9258 17.434 21.565C18.0409 20.3511 20.4112 17.8275 25.2859 12.7483C26.5701 11.413 27.7776 10.1544 28.7232 9.14499C29.1576 8.6786 29.592 8.20582 30.0265 7.72665C33.2848 4.14249 36.6645 0.430542 41.009 0.430542C43.1684 0.430542 45.7687 2.83915 51.1482 8.60193C51.8126 9.31749 52.3876 9.93082 52.7582 10.3014C53.774 11.3108 54.2468 12.5567 54.1318 13.8855C53.9593 15.8597 52.5026 17.8147 49.7937 19.7122C47.877 21.0539 45.3726 20.4533 42.3443 17.9297C40.5809 16.4603 39.1562 14.7864 39.0987 14.7161C38.3193 13.7961 38.4343 12.4161 39.3543 11.6367C40.2743 10.8572 41.6543 10.9722 42.4337 11.8922C44.1523 13.9175 46.5162 15.8469 47.449 16.013C49.3337 14.6586 49.7554 13.7194 49.7745 13.515C49.7682 13.515 49.7362 13.4639 49.6659 13.3936C49.2443 12.9719 48.6437 12.3267 47.9473 11.5855C46.3693 9.89249 42.2484 5.48415 40.8109 4.80693C38.4407 4.96026 35.802 7.86082 33.2529 10.6655C32.8057 11.1575 32.3584 11.6494 31.9112 12.1222C30.9465 13.1572 29.7198 14.4286 28.4293 15.7703C25.9695 18.3258 21.8615 22.6064 21.3248 23.5392C20.7818 24.6253 20.3282 26.4014 20.3218 26.9828C20.8073 28.5928 25.3626 33.7869 29.4132 37.7353C30.282 38.5786 30.2948 39.9586 29.4515 40.8275C29.0298 41.2683 28.4612 41.4919 27.8926 41.4919Z" fill="#FFEB26"/>
<path d="M27.1516 41.4919C26.583 41.4919 26.0144 41.2683 25.5864 40.8339C24.743 39.965 24.7622 38.585 25.6247 37.7417C29.6752 33.7997 34.2305 28.5992 34.7161 26.9892C34.7033 26.4078 34.2497 24.6317 33.6939 23.52C33.17 22.6128 29.0555 18.3322 26.6022 15.7767C25.3052 14.435 24.085 13.1636 23.1202 12.1286C22.673 11.6494 22.2258 11.1575 21.7786 10.6719C19.2294 7.86721 16.5908 4.96665 14.2205 4.81332C12.783 5.48415 8.66219 9.90527 7.08413 11.5919C6.39413 12.333 5.79358 12.9783 5.37191 13.4C5.27608 13.4958 5.25691 13.5405 5.25691 13.5405C5.2633 13.6939 5.6658 14.6394 7.58886 16.0194C8.53441 15.8533 10.8919 13.9239 12.6041 11.8986C13.3836 10.9786 14.7636 10.8636 15.6836 11.643C16.6036 12.4225 16.7186 13.8025 15.9391 14.7225C15.8816 14.7928 14.4633 16.4667 12.6936 17.9361C9.66525 20.4597 7.15441 21.0603 5.24413 19.7186C2.53524 17.8275 1.07858 15.8661 0.906077 13.8919C0.791077 12.5567 1.26386 11.3172 2.27969 10.3078C2.65024 9.93721 3.22525 9.32388 3.88969 8.60832C9.26913 2.84554 11.8694 0.430542 14.0289 0.430542C18.3797 0.430542 21.753 4.1361 25.0177 7.72665C25.4522 8.20582 25.8866 8.6786 26.3211 9.14499C27.2666 10.1544 28.4741 11.4194 29.7583 12.7483C34.6394 17.8275 37.0033 20.3511 37.6103 21.565C38.2875 22.9258 39.3928 26.1778 38.9966 27.8964C38.1852 31.4039 30.8891 38.7192 28.6722 40.8722C28.2505 41.2875 27.7011 41.4919 27.1516 41.4919Z" fill="#FFEB26"/>
<path d="M14.0289 51.8164C11.8695 51.8164 9.26921 49.4078 3.88977 43.645C3.22532 42.9295 2.65032 42.3161 2.27977 41.9456C1.27032 40.9298 0.791156 39.6903 0.906156 38.3614C1.07866 36.3873 2.53532 34.4259 5.24421 32.5348C7.16088 31.1931 9.66532 31.7936 12.6937 34.3173C14.457 35.7867 15.8817 37.4606 15.9392 37.5309C16.7187 38.4509 16.6037 39.8309 15.6837 40.6103C14.7637 41.3898 13.3837 41.2748 12.6042 40.3548C10.8856 38.3295 8.52171 36.4 7.58893 36.2339C5.70421 37.5884 5.28255 38.5275 5.26338 38.7384C5.26977 38.7384 5.29532 38.7831 5.3656 38.8534C5.78727 39.275 6.38782 39.9203 7.07782 40.6614C8.65588 42.3481 12.7767 46.7628 14.2142 47.44C16.5781 47.2867 19.2167 44.3861 21.7723 41.5814C22.2195 41.0895 22.6667 40.5975 23.1139 40.1248C24.0787 39.0898 25.3053 37.8184 26.5959 36.4767C29.0556 33.9211 33.1637 29.6406 33.7003 28.7078C34.2434 27.6281 35.5467 27.2 36.6264 27.7431C37.7062 28.2798 38.1342 29.6086 37.5975 30.6884C36.9906 31.9023 34.6267 34.4259 29.7456 39.505C28.4678 40.8403 27.2539 42.0989 26.3084 43.1084C25.8739 43.5748 25.4395 44.0475 25.005 44.5267C21.7531 48.1109 18.3798 51.8164 14.0289 51.8164Z" fill="#FFEB26"/>
<path d="M41.0156 51.8164C36.6647 51.8164 33.2914 48.1108 30.0267 44.5267C29.5922 44.0475 29.1578 43.5747 28.7233 43.1083C27.7842 42.0989 26.5703 40.8403 25.2861 39.505C20.405 34.4258 18.0411 31.9022 17.4342 30.6883C16.8975 29.6086 17.332 28.2925 18.4117 27.7558C19.4914 27.2192 20.8075 27.6536 21.3442 28.7333C21.8681 29.6342 25.9825 33.9147 28.4422 36.4703C29.7328 37.8119 30.9595 39.0833 31.9242 40.1183C32.3714 40.5975 32.8186 41.0894 33.2658 41.5814C35.815 44.3861 38.4536 47.2803 40.8239 47.44C42.2614 46.7692 46.3822 42.3544 47.9603 40.6614C48.6503 39.9203 49.2508 39.275 49.6789 38.8533C49.7683 38.7575 49.7939 38.7128 49.7939 38.7128C49.7875 38.5658 49.385 37.6139 47.4683 36.2339C46.5995 36.4 44.3186 38.1442 42.4467 40.3547C41.6672 41.2747 40.2872 41.3897 39.3672 40.6103C38.4472 39.8308 38.3322 38.4508 39.1117 37.5308C39.1756 37.4606 40.5939 35.7867 42.3572 34.3172C45.3856 31.7936 47.8964 31.1931 49.8131 32.5347C52.5156 34.4258 53.9722 36.3872 54.1511 38.3614C54.2661 39.6967 53.7933 40.9361 52.7775 41.9456C52.407 42.3161 51.832 42.9294 51.1675 43.645C45.7689 49.4078 43.175 51.8164 41.0156 51.8164Z" fill="#FFEB26"/>
<path d="M30.1226 28.3819H24.8901C23.7465 28.3819 22.8201 27.4555 22.8201 26.3119C22.8201 25.1683 23.7465 24.2419 24.8901 24.2419H30.1226C31.2662 24.2419 32.1926 25.1683 32.1926 26.3119C32.1926 27.4555 31.2662 28.3819 30.1226 28.3819Z" fill="#FFEB26"/>
</svg>
