<svg width="40" height="49" viewBox="0 0 40 49" fill="none" xmlns="http://www.w3.org/2000/svg">
<path d="M11.4306 5.48081C10.1272 6.20275 8.2489 5.97914 7.52696 5.0272C7.0414 4.38831 7.05418 3.85164 7.82724 3.4747C8.62585 3.08497 9.41168 2.56747 10.3572 2.7272C11.2517 2.88053 11.6797 2.52914 11.9225 1.67942C12.0311 1.30247 11.9289 0.529417 12.6125 0.669973C13.1108 0.772195 12.7914 1.41108 12.8936 1.80081C12.9383 1.95414 12.9767 2.10747 13.0725 2.44608C13.5325 1.76247 12.9639 0.836084 13.8392 0.548584C13.9158 0.593306 13.9861 0.638028 14.0628 0.676362C14.2545 3.59608 14.2608 6.50942 13.7178 9.39081C13.4303 10.9177 13.5133 12.4575 13.3983 13.9908C13.3345 14.783 13.7178 15.275 14.3822 15.7669C20.1258 20.0091 26.8789 22.4689 32.8206 26.3533C33.4403 26.7558 34.1686 27.0114 34.8267 27.3819C35.9128 27.9889 37.1267 28.2572 38.4172 27.9377C39.0497 27.7844 39.7845 28.0847 39.8995 28.6533C40.0208 29.2475 39.267 29.1452 38.8325 29.2219C38.5706 29.2666 38.315 29.3114 38.1553 29.535C36.6092 31.7519 35.1845 34.0008 35.325 36.8822C35.3825 38.0769 35.3378 39.278 35.2739 40.4727C35.2228 41.4566 35.0631 42.415 34.552 43.303C33.4595 45.175 32.0986 46.8297 30.5781 48.6122C30.3992 47.8902 30.1436 47.328 30.3608 46.8425C30.9486 45.5327 30.9295 43.9866 31.9772 42.8622C32.68 42.1147 32.8972 41.3352 32.5586 40.23C32.252 39.2525 32.4436 38.1152 32.2839 37.0355C32.1881 37.9939 31.7281 38.8436 31.8047 39.8658C31.8942 40.9711 31.5747 42.0636 31.102 43.0858C30.6356 44.0952 30.1947 45.1175 29.7347 46.1269C29.5878 46.4527 29.5558 47.0597 29.0831 46.8872C28.6742 46.7402 28.7189 46.1397 28.8595 45.75C29.2172 44.7469 29.4472 43.6033 30.0989 42.8175C31.3895 41.2586 31.0125 39.54 30.9806 37.8277C30.9678 37.1825 30.9231 37.2144 31.4789 37.0164C31.6258 36.9652 31.7153 36.6841 31.792 36.4925C32.0347 35.8791 32.0795 35.1636 32.7439 34.6461C33.4147 37.0675 33.2997 39.4825 33.4403 41.8655C33.4658 42.2425 33.3317 42.6322 32.9995 42.8941C31.7472 43.8972 31.5683 45.4497 31.0764 46.9064C31.2936 46.7019 31.5556 46.5294 31.7153 46.2866C32.5906 44.9258 33.2614 43.4436 34.322 42.1914C34.6158 41.8464 34.6606 41.3289 34.6159 40.8369C34.552 40.1533 34.6159 39.4505 34.4753 38.7925C33.6575 34.9591 36.0917 32.263 37.7208 29.2794C37.9828 28.8002 38.6345 28.8961 38.9731 28.5064C38.7303 28.2125 38.4875 28.3786 38.2639 28.468C37.0628 28.9408 35.8936 28.7939 34.8075 28.1933C31.7089 26.4683 28.6933 24.5836 25.5372 22.98C23.94 22.1686 22.4833 21.0441 20.867 20.4244C19.6722 19.9708 18.682 19.1786 17.4745 18.8016C17.0336 18.6675 16.6503 18.3608 16.2478 18.1116C16.1392 18.0414 15.9092 17.8689 16.2797 17.8241C16.3947 17.8114 16.5161 17.888 16.9697 18.0222C15.8517 17.3577 15.0211 16.8658 14.1842 16.3739C14.1458 16.77 14.7464 16.6869 14.7656 17.1214C13.4303 16.6677 12.6253 15.9841 12.6828 14.3869C12.785 11.7547 12.3378 9.09692 13.0789 6.48386C13.2067 6.03025 13.36 5.59581 13.5006 5.15497C13.8775 4.01136 12.9575 2.93164 11.8586 3.27025C10.8428 3.58331 9.64807 3.37886 8.68974 4.23497C9.60974 4.95692 10.9642 4.34358 11.6286 5.40414C11.5775 5.43608 11.5008 5.46164 11.4306 5.48081Z" fill="#FFEB26"/>
<path d="M7.51432 32.4611C6.88182 29.1453 6.92016 26.1681 8.8496 23.4847C9.80155 22.1558 10.3702 22.2261 11.354 23.4528C12.2165 24.5261 12.849 25.7208 13.5582 26.8836C15.5452 30.1483 18.3243 31.8861 22.3493 31.0428C23.8891 30.7233 25.4799 30.6595 27.0707 30.717C27.9077 30.7489 28.3804 31.0939 28.5082 31.8542C28.8149 33.6303 29.5177 35.285 30.0671 36.9908C30.6549 38.8308 30.2396 40.722 29.6071 42.3895C29.2429 43.3286 28.7766 44.2486 28.5338 45.2645C28.4124 45.7692 28.1632 46.2995 27.6074 46.3825C27.2752 46.4336 26.8471 46.2611 26.7257 45.8075C26.566 45.2197 26.8407 44.7853 27.3071 44.5106C27.9652 44.1208 28.1824 43.5203 28.3421 42.8303C28.5785 41.7889 28.7893 40.7347 29.1343 39.7317C29.7541 37.9236 29.5624 36.2753 28.3421 34.7931C27.8566 34.2053 27.5691 33.56 27.5818 32.8061C27.5946 32.0267 27.1985 31.9756 26.5979 32.1481C24.0999 32.87 21.5252 32.7933 18.9632 32.9275C17.3724 33.017 16.0499 32.4356 14.9063 31.3622C12.8427 29.4136 11.6032 26.922 10.3254 24.4558C10.1529 24.13 10.1785 23.6061 9.69932 23.5806C9.27766 23.555 9.03488 23.9767 8.87516 24.3025C7.89127 26.3342 7.36738 28.4489 7.74432 30.7297C7.84654 31.2217 8.08932 31.7711 7.51432 32.4611ZM27.1985 31.4453C26.3999 31.0364 25.7993 31.1195 25.2179 31.1706C23.5568 31.3111 21.9021 31.4517 20.2474 31.6561C19.0527 31.8031 17.9027 31.6881 16.9252 31.0172C15.1554 29.8033 13.5965 28.3786 12.7277 26.315C12.3315 25.3695 11.846 24.4303 10.8365 23.9128C11.7438 26.117 12.8746 28.1933 14.3824 30.0333C15.3152 31.1706 16.446 32.2886 17.9474 32.3461C20.9629 32.4611 23.9977 32.4228 27.1985 31.4453Z" fill="#FFEB26"/>
<path d="M18.1964 42.5363C17.9536 42.185 18.1389 41.9422 18.3241 41.8016C20.1769 40.3705 21.9786 38.818 24.5214 38.7797C24.8344 38.7733 25.403 39.1183 25.3455 38.4091C25.3008 37.8533 24.8855 37.8597 24.3872 37.9044C22.5536 38.0641 20.8477 38.4794 19.4997 39.853C18.9311 40.4344 18.4647 40.5047 17.6405 39.968C14.9636 38.2238 12.1525 36.6969 9.42441 35.0358C8.5683 34.5119 7.59719 34.8313 6.72191 34.4927C6.49191 34.4033 6.28108 34.7227 6.19802 34.9719C6.04469 35.4191 5.76997 35.8919 5.82108 36.3199C6.17886 39.1949 3.61053 39.5336 2.04525 40.7219C1.48941 41.1436 0.863302 40.9711 0.141357 40.4983C1.52775 39.7763 2.78636 39.0736 4.07691 38.4602C4.8308 38.1024 5.29719 37.6424 5.0608 36.7799C4.76052 35.6874 5.70608 34.3841 4.45386 33.4322C4.19191 33.2341 4.47941 32.9722 4.76691 32.9402C5.0608 32.9083 5.38664 32.8572 5.65497 32.9402C9.93552 34.2308 14.1714 35.6299 17.4489 38.8819C18.2411 39.6677 18.88 39.7955 19.7361 39.0097C20.573 38.243 21.6016 37.7766 22.7452 37.6936C23.8952 37.6105 24.8344 36.978 25.8822 36.633C26.4636 36.4413 26.4827 36.4477 26.8341 37.0994C26.9236 37.2719 27.0002 37.2272 27.1152 37.2144C28.0864 37.1313 27.8627 37.668 27.3964 37.9555C26.6744 38.4027 26.5466 38.8436 26.8852 39.6038C27.1344 40.1661 26.8277 40.5047 26.1952 40.4599C25.633 40.4216 25.0069 40.3705 24.6427 39.9488C23.8505 39.0288 23.0583 39.3866 22.2469 39.8019C21.295 40.2938 20.4261 40.9072 19.6211 41.6227C19.1866 41.9869 18.8097 42.4852 18.1964 42.5363Z" fill="#FFEB26"/>
<path d="M1.29126 41.5652C3.0482 40.6644 4.69015 39.6038 6.29376 38.4986C7.09237 37.9491 7.57793 38.4219 8.02515 38.9586C8.79821 39.8849 9.61598 40.741 10.7085 41.2969C11.6413 41.776 12.6443 41.9102 13.6793 41.9805C15.8579 42.1274 17.8321 42.7919 19.4485 44.3572C20.2663 45.1494 20.6368 46.7785 20.0938 48.2608C19.2185 46.4463 18.4454 44.7788 17.1038 43.4244C16.9313 43.9163 17.321 44.1335 17.4999 44.421C17.9599 45.1494 18.3368 45.916 18.3176 46.7977C18.3113 47.0597 18.3304 47.4813 17.9024 47.4494C17.5638 47.4238 17.6788 47.066 17.6277 46.8297C17.2827 45.3411 15.909 44.421 15.4618 42.958C15.3404 42.5683 14.676 42.6641 14.2799 42.7599C11.5838 43.4116 9.48182 42.6002 7.99321 40.2619C7.62265 39.6805 7.22015 39.7316 6.70265 40.0255C5.80821 40.5302 4.90737 41.0222 3.98737 41.4758C3.63598 41.6483 3.31654 42.0252 2.81182 41.8336C2.86932 41.1819 3.66154 41.3224 3.90432 40.741C2.95876 40.9263 2.29432 41.7569 1.29126 41.5652Z" fill="#FFEB26"/>
<path d="M11.6477 5.41052C12.2994 5.70441 12.2674 6.24747 12.1716 6.82886C11.7499 9.26941 11.4433 11.7291 10.9002 14.1377C10.3124 16.7444 9.37967 19.1977 7.118 20.9419C5.17578 22.4433 4.74772 24.7241 4.53689 26.9922C4.44105 28.0336 4.27494 29.1069 4.49216 30.1739C4.54327 30.423 4.48578 30.7552 4.14716 30.7297C3.82133 30.7041 3.84689 30.3655 3.85327 30.1164C3.90439 28.1933 3.898 26.2702 4.03855 24.3536C4.17272 22.5519 5.07994 21.0697 6.56216 20.0794C8.03161 19.1019 8.65133 17.6069 9.16244 16.0991C10.3252 12.6555 10.8044 9.0458 11.4369 5.4808C11.5008 5.46163 11.5774 5.43608 11.6477 5.41052Z" fill="#FFEB26"/>
<path d="M10.1846 19.4342C10.2869 20.0603 10.3188 20.5906 9.83965 20.9164C7.99965 22.1814 7.76965 24.2961 7.14993 26.1553C6.55576 27.9314 6.17243 29.7906 6.67076 31.7009C6.73465 31.9564 6.90715 32.4931 6.39604 32.5059C5.96798 32.5123 6.14687 32.0459 6.14048 31.7775C6.11493 31.0364 5.0352 31.0556 5.12465 30.0781C5.25882 28.6789 5.28437 27.2734 5.67409 25.9061C5.84659 25.2864 6.07659 24.6859 6.19798 24.0598C6.45993 22.7245 7.14354 21.7214 8.29354 20.9803C8.91965 20.5586 9.47548 20.0156 10.1846 19.4342Z" fill="#FFEB26"/>
</svg>
