<svg width="67" height="47" viewBox="0 0 67 47" fill="none" xmlns="http://www.w3.org/2000/svg">
<path d="M59.7872 15.3864C67.5369 13.8467 57.3978 8.88889 57.3978 8.88889C42.6906 2.385 37.5667 4.75528 37.5667 4.75528C36.2889 5.7775 31.8039 5.45805 31.8039 5.45805C25.0189 6.54416 25.2744 14.1661 25.2744 14.1661C15.7997 16.2169 12.3369 19.4178 12.3369 19.4178C4.21028 25.8194 3.43722 25.3083 3.43722 25.3083C0.044721 27.2314 3.43722 27.998 3.43722 27.998C6.44639 28.9564 8.75278 32.3553 8.75278 32.3553C17.5886 43.6892 31.9317 42.7947 31.9317 42.7947C48.7728 43.5614 55.6217 32.2275 55.6217 32.2275C59.5892 26.273 55.5578 21.1492 55.5578 21.1492C54.9189 19.3539 57.0336 19.6733 57.0336 19.6733C58.2475 20.5678 59.7872 20.0567 59.7872 20.0567C62.2214 18.5808 59.34 17.0475 59.34 17.0475C57.4233 16.3447 59.7872 15.3864 59.7872 15.3864ZM35.2028 13.5272C32.8964 13.0161 28.7372 13.5272 28.7372 13.5272C28.4178 12.6967 28.7372 10.8375 28.7372 10.8375C31.3631 6.80611 34.6917 9.32333 34.6917 9.32333C35.7139 10.2433 35.2028 13.5272 35.2028 13.5272Z" fill="#FFEB26" stroke="white" stroke-width="6.9882" stroke-miterlimit="10"/>
<path d="M62.3236 13.9552C61.2375 14.9902 55.9731 14.7475 48.3575 13.3291C41.7961 12.1025 35.3306 8.21162 36.5253 5.88607C37.4261 4.12913 43.3678 4.28246 50.4914 6.51218C57.615 8.7419 63.7547 12.5944 62.3236 13.9552Z" fill="#FFEB26" stroke="white" stroke-width="6.9882" stroke-miterlimit="10"/>
</svg>
