<svg width="43" height="26" viewBox="0 0 43 26" fill="none" xmlns="http://www.w3.org/2000/svg">
<path d="M24.3997 24.7688L41.787 7.12078C42.1714 6.73384 42.4764 6.27349 42.6846 5.76628C42.8928 5.25907 43 4.71504 43 4.16557C43 3.6161 42.8928 3.07207 42.6846 2.56486C42.4764 2.05765 42.1714 1.59729 41.787 1.21036C41.0187 0.43513 39.9793 -1.32038e-07 38.8959 -1.79394e-07C37.8126 -2.26749e-07 36.7732 0.43513 36.0049 1.21036L21.4881 15.9448L6.97139 1.21036C6.20306 0.435128 5.16371 -1.65388e-06 4.08034 -1.70123e-06C2.99697 -1.74859e-06 1.95762 0.435128 1.18929 1.21036C0.809227 1.59928 0.508537 2.06052 0.304462 2.56764C0.100391 3.07477 -0.00305192 3.61778 6.84825e-05 4.16557C-0.00305196 4.71335 0.100391 5.25637 0.304462 5.76349C0.508537 6.27061 0.809227 6.73186 1.18929 7.12078L18.5766 24.7688C18.9578 25.1589 19.4114 25.4686 19.9111 25.6799C20.4108 25.8912 20.9468 26 21.4881 26C22.0295 26 22.5655 25.8912 23.0652 25.6799C23.5649 25.4686 24.0185 25.1589 24.3997 24.7688Z" fill="#FF297A"/>
</svg>
