<svg width="95" height="95" viewBox="0 0 95 95" fill="none" xmlns="http://www.w3.org/2000/svg">
<path d="M72.6425 16.7075C71.525 16.7075 70.4327 17.0389 69.5035 17.6597C68.5744 18.2805 67.8502 19.1629 67.4226 20.1953C66.9949 21.2277 66.883 22.3638 67.1011 23.4598C67.3191 24.5557 67.8572 25.5625 68.6473 26.3526C69.4375 27.1428 70.4442 27.6809 71.5402 27.8989C72.6362 28.1169 73.7723 28.005 74.8047 27.5774C75.8371 27.1498 76.7195 26.4256 77.3403 25.4965C77.9611 24.5673 78.2925 23.475 78.2925 22.3575C78.2925 20.859 77.6972 19.4219 76.6376 18.3623C75.5781 17.3028 74.141 16.7075 72.6425 16.7075ZM94.3008 28.1017C94.2093 24.1951 93.4776 20.3301 92.135 16.6604C90.9378 13.5206 89.0745 10.6774 86.6733 8.32666C84.3419 5.91329 81.4921 4.06174 78.3396 2.91207C74.6796 1.52858 70.8102 0.780187 66.8983 0.699156C61.9075 0.416656 60.3067 0.416656 47.5 0.416656C34.6933 0.416656 33.0925 0.416656 28.1017 0.699156C24.1898 0.780187 20.3204 1.52858 16.6604 2.91207C13.5137 4.07338 10.6664 5.92334 8.32666 8.32666C5.91329 10.6581 4.06174 13.5079 2.91207 16.6604C1.52858 20.3204 0.780187 24.1898 0.699156 28.1017C0.416656 33.0925 0.416656 34.6933 0.416657 47.5C0.416657 60.3067 0.416656 61.9075 0.699156 66.8983C0.780187 70.8102 1.52858 74.6796 2.91207 78.3396C4.06174 81.4921 5.91329 84.3419 8.32666 86.6733C10.6664 89.0767 13.5137 90.9266 16.6604 92.0879C20.3204 93.4714 24.1898 94.2198 28.1017 94.3008C33.0925 94.5833 34.6933 94.5833 47.5 94.5833C60.3067 94.5833 61.9075 94.5833 66.8983 94.3008C70.8102 94.2198 74.6796 93.4714 78.3396 92.0879C81.4921 90.9383 84.3419 89.0867 86.6733 86.6733C89.0851 84.3313 90.9501 81.4857 92.135 78.3396C93.4776 74.6699 94.2093 70.8049 94.3008 66.8983C94.3008 61.9075 94.5833 60.3067 94.5833 47.5C94.5833 34.6933 94.5833 33.0925 94.3008 28.1017ZM85.8258 66.3333C85.7915 69.322 85.2503 72.2833 84.225 75.0908C83.4732 77.1399 82.2658 78.9913 80.6937 80.5054C79.1666 82.0616 77.3189 83.2665 75.2792 84.0367C72.4716 85.0619 69.5104 85.6032 66.5217 85.6375C61.8133 85.8729 60.0712 85.92 47.6883 85.92C35.3054 85.92 33.5633 85.92 28.855 85.6375C25.7517 85.6956 22.6616 85.2178 19.7208 84.225C17.7705 83.4155 16.0076 82.2135 14.5417 80.6938C12.9789 79.1812 11.7865 77.3282 11.0575 75.2792C9.90798 72.4313 9.27041 69.4029 9.17416 66.3333C9.17416 61.625 8.89166 59.8829 8.89166 47.5C8.89166 35.1171 8.89166 33.375 9.17416 28.6667C9.19526 25.6112 9.75305 22.5832 10.8221 19.7208C11.651 17.7335 12.9232 15.962 14.5417 14.5417C15.9721 12.9228 17.74 11.6371 19.7208 10.775C22.5908 9.73936 25.6156 9.19807 28.6667 9.17416C33.375 9.17416 35.1171 8.89166 47.5 8.89166C59.8829 8.89166 61.625 8.89166 66.3333 9.17416C69.322 9.20844 72.2833 9.74973 75.0908 10.775C77.2304 11.5691 79.1508 12.8601 80.6937 14.5417C82.2367 15.988 83.4423 17.7562 84.225 19.7208C85.2714 22.5879 85.8131 25.6146 85.8258 28.6667C86.0612 33.375 86.1083 35.1171 86.1083 47.5C86.1083 59.8829 86.0612 61.625 85.8258 66.3333ZM47.5 23.3462C42.7248 23.3556 38.0596 24.7801 34.0937 27.4398C30.1279 30.0995 27.0394 33.875 25.2184 38.2893C23.3975 42.7037 22.9259 47.5587 23.8632 52.241C24.8005 56.9232 27.1046 61.2226 30.4844 64.5959C33.8643 67.9691 38.1681 70.2649 42.8522 71.193C47.5363 72.1212 52.3904 71.6401 56.8012 69.8106C61.2119 67.9811 64.9815 64.8852 67.6334 60.9142C70.2854 56.9432 71.7008 52.2752 71.7008 47.5C71.7071 44.3224 71.085 41.1749 69.8704 38.2385C68.6558 35.3021 66.8727 32.6349 64.6236 30.3902C62.3745 28.1454 59.7038 26.3675 56.765 25.1586C53.8263 23.9498 50.6776 23.3338 47.5 23.3462ZM47.5 63.1788C44.399 63.1788 41.3677 62.2592 38.7893 60.5364C36.211 58.8136 34.2014 56.3649 33.0147 53.5C31.828 50.6351 31.5175 47.4826 32.1225 44.4412C32.7275 41.3998 34.2207 38.6062 36.4134 36.4134C38.6062 34.2207 41.3998 32.7275 44.4412 32.1225C47.4826 31.5175 50.6351 31.828 53.5 33.0147C56.3649 34.2014 58.8136 36.211 60.5364 38.7893C62.2592 41.3677 63.1787 44.399 63.1787 47.5C63.1787 49.559 62.7732 51.5978 61.9853 53.5C61.1973 55.4022 60.0425 57.1306 58.5865 58.5865C57.1306 60.0425 55.4022 61.1973 53.5 61.9853C51.5978 62.7732 49.559 63.1788 47.5 63.1788Z" fill="#FF297A"/>
</svg>
