<svg width="54" height="54" viewBox="0 0 54 54" fill="none" xmlns="http://www.w3.org/2000/svg">
<path d="M27.1392 1.85193C13.4286 1.85832 2.28641 13.09 2.2928 26.89C2.29919 40.6836 13.4606 51.9025 27.1711 51.8961C40.8817 51.8833 52.0239 40.6516 52.0175 26.858C52.0111 13.058 40.8498 1.84554 27.1392 1.85193ZM27.1711 53.2761C12.7067 53.2889 0.925581 41.4503 0.919192 26.89C0.912803 12.3361 12.6747 0.478315 27.1392 0.471926C41.6036 0.465538 53.3847 12.2978 53.3911 26.858C53.4039 41.4183 41.642 53.2697 27.1711 53.2761Z" fill="#FFEB26"/>
<path d="M52.8992 28.008L1.41113 28.0464V25.74L52.8992 25.7017V28.008Z" fill="#FFEB26"/>
<path d="M28.2764 52.5541H25.9828L25.9508 1.19385H28.238L28.2764 52.5541Z" fill="#FFEB26"/>
<path d="M4.58007 37.2144L2.92535 35.63L11.199 26.8708L2.72729 17.2236L4.44591 15.6967L14.304 26.9219L4.58007 37.2144Z" fill="#FFEB26"/>
<path d="M49.7622 37.1824L40.0958 26.8388L49.5578 15.6838L51.2956 17.1724L43.1689 26.7622L51.4297 35.6044L49.7622 37.1824Z" fill="#FFEB26"/>
<path d="M27.0881 13.5563L16.8658 3.77492L18.4439 2.10742L27.1456 10.4321L35.892 2.27353L38.2431 3.63437L27.0881 13.5563Z" fill="#FFEB26"/>
<path d="M17.7219 50.9441L16.2078 49.2127L27.3628 39.2971L38.6711 49.4938L36.0133 50.746L27.3053 42.4213L17.7219 50.9441Z" fill="#FFEB26"/>
<path d="M22.0984 36.5564C21.7534 36.0964 21.1912 35.8664 20.4181 35.86C20.4309 35.7578 20.4373 35.6556 20.4373 35.5534C20.4373 34.825 20.1562 34.167 19.7026 33.675C19.9517 33.1831 20.2201 32.9084 20.4628 32.8828C20.7439 32.8573 21.0889 33.1767 21.2103 33.33C21.402 33.5856 21.7662 33.6303 22.0153 33.4386C22.2709 33.2406 22.3156 32.8764 22.1239 32.6209C22.0473 32.5186 21.3509 31.637 20.3606 31.72C19.7281 31.7775 19.1978 32.2056 18.757 32.9914C18.4248 32.8509 18.0606 32.7742 17.6837 32.7742C17.2301 32.7742 16.802 32.8892 16.4251 33.0873C16.0545 32.6975 15.8756 32.3589 15.9267 32.1225C15.9906 31.8478 16.3931 31.6242 16.5848 31.5539C16.8851 31.4517 17.0448 31.1195 16.9426 30.8192C16.8403 30.5125 16.5145 30.3528 16.2142 30.455C16.0928 30.4934 15.0387 30.8831 14.8087 31.8478C14.6553 32.4803 14.9045 33.1384 15.5306 33.822C15.1537 34.2948 14.9301 34.8953 14.9301 35.547C14.9301 35.662 14.9428 35.777 14.9556 35.892C14.8853 35.9112 14.8151 35.9431 14.7512 35.9942C14.3231 36.3328 13.9589 36.4734 13.7353 36.3967C13.467 36.3009 13.2945 35.8728 13.2434 35.6748C13.1731 35.3617 12.8728 35.1637 12.5598 35.2339C12.2467 35.3042 12.0551 35.6173 12.1189 35.9239C12.1445 36.0517 12.4128 37.1506 13.3456 37.4828C13.5181 37.5403 13.697 37.5787 13.8759 37.5787C14.3295 37.5787 14.8278 37.3742 15.3453 36.9909C15.7862 37.7128 16.5401 38.2112 17.4153 38.3006C17.4792 38.6839 17.4473 38.965 17.3195 39.112C17.1278 39.3228 16.6614 39.3164 16.4698 39.2781C16.1567 39.2206 15.8564 39.425 15.7989 39.7381C15.7414 40.0512 15.9459 40.3578 16.2589 40.4153C16.3037 40.4217 16.4826 40.4537 16.7253 40.4537C17.1406 40.4537 17.7412 40.3578 18.1692 39.8978C18.5526 39.4889 18.6867 38.9012 18.5717 38.16C19.1851 37.9556 19.6962 37.5403 20.0284 36.9973C20.0603 36.9973 20.0859 37.01 20.1178 37.01C20.6609 36.9653 21.0442 37.042 21.1912 37.2337C21.3637 37.4573 21.2806 37.9173 21.2103 38.1089C21.1017 38.4092 21.2487 38.7414 21.5489 38.8564C21.6192 38.882 21.6895 38.8948 21.7534 38.8948C21.9834 38.8948 22.207 38.7542 22.2901 38.5178C22.322 38.4156 22.6926 37.3487 22.0984 36.5564Z" fill="#FFEB26"/>
<path d="M41.1947 16.7316C40.8497 16.2716 40.2875 16.0416 39.5145 16.0352C39.5272 15.933 39.5336 15.8308 39.5336 15.7285C39.5336 15.0002 39.2525 14.3421 38.7989 13.8502C39.0481 13.3583 39.3164 13.0835 39.5592 13.058C39.8403 13.0324 40.1853 13.3519 40.3067 13.5052C40.4984 13.7608 40.8625 13.8055 41.1117 13.6138C41.3672 13.4158 41.412 13.0516 41.2203 12.796C41.1436 12.6938 40.4472 11.8121 39.457 11.8952C38.8245 11.9527 38.2942 12.3808 37.8534 13.1666C37.5211 13.026 37.157 12.9494 36.78 12.9494C36.3264 12.9494 35.8984 13.0644 35.5214 13.2624C35.1509 12.8727 34.972 12.5341 35.0231 12.2977C35.087 12.023 35.4895 11.7994 35.6811 11.7291C35.9814 11.6269 36.1411 11.2946 36.0389 10.9944C35.9367 10.6877 35.6109 10.528 35.3106 10.6302C35.1892 10.6685 34.135 11.0583 33.905 12.023C33.7517 12.6555 34.0009 13.3135 34.627 13.9971C34.2564 14.4699 34.0264 15.0705 34.0264 15.7221C34.0264 15.8371 34.0392 15.9521 34.052 16.0671C33.9817 16.0863 33.9114 16.1183 33.8475 16.1694C33.4195 16.508 33.0553 16.6485 32.8317 16.5719C32.5634 16.476 32.3909 16.048 32.3397 15.8499C32.2695 15.5369 31.9628 15.3388 31.6497 15.4091C31.3367 15.4794 31.145 15.7924 31.2089 16.0991C31.2345 16.2269 31.5028 17.3258 32.4356 17.658C32.6081 17.7155 32.787 17.7538 32.9659 17.7538C33.4195 17.7538 33.9178 17.5494 34.4353 17.166C34.8761 17.888 35.63 18.3863 36.5053 18.4758C36.5692 18.8591 36.5372 19.1402 36.4095 19.2871C36.2178 19.498 35.7514 19.4916 35.5597 19.4533C35.2467 19.3958 34.9464 19.6002 34.8889 19.9133C34.8314 20.2263 35.0359 20.533 35.3489 20.5905C35.3936 20.5969 35.5725 20.6288 35.8153 20.6288C36.2306 20.6288 36.8311 20.533 37.2592 20.073C37.6425 19.6641 37.7767 19.0763 37.6617 18.3352C38.275 18.1308 38.7861 17.7155 39.1184 17.1724C39.1503 17.1724 39.1759 17.1852 39.2078 17.1852C39.7509 17.1405 40.1342 17.2171 40.2811 17.4088C40.4536 17.6324 40.3706 18.0924 40.3003 18.2841C40.1917 18.5844 40.3386 18.9166 40.6389 19.0316C40.7028 19.0571 40.7731 19.0699 40.8434 19.0699C41.0734 19.0699 41.297 18.9294 41.38 18.693C41.4184 18.5908 41.7889 17.5238 41.1947 16.7316Z" fill="#FFEB26"/>
<path d="M16.31 16.3994C16.31 14.0099 18.1373 12.0038 20.6289 11.4096C20.1434 11.2946 19.6386 11.2244 19.1084 11.2244C15.882 11.2244 13.2689 13.5435 13.2689 16.3994C13.2689 19.2552 15.8884 21.568 19.1148 21.5616C19.6386 21.5616 20.1498 21.4913 20.6353 21.3763C18.1436 20.7885 16.31 18.7888 16.31 16.3994Z" fill="#FFEB26"/>
<path d="M38.9714 36.8311L41.9742 34.48H38.1792L36.9333 30.7936L35.6747 34.48L31.9053 34.4864L34.8697 36.8247L33.3556 41.2394L36.9206 38.4411L40.4536 41.233L38.9714 36.8311Z" fill="#FFEB26"/>
</svg>
