<svg width="59" height="54" viewBox="0 0 59 54" fill="none" xmlns="http://www.w3.org/2000/svg">
<path d="M47.3825 11.6464C47.3825 12.5089 46.7053 13.2053 45.862 13.2053C45.0187 13.2053 44.3414 12.5089 44.3414 11.6464C44.3414 10.7839 45.0187 10.0875 45.862 10.0875C46.7053 10.0875 47.3825 10.7839 47.3825 11.6464Z" fill="#FFEB26"/>
<path d="M45.6575 8.31778C47.4528 8.31778 48.9095 9.80639 48.9095 11.6464C48.9095 13.4864 47.4528 14.975 45.6575 14.975C43.8622 14.975 42.4056 13.4864 42.4056 11.6464C42.412 9.80639 43.8622 8.31778 45.6575 8.31778ZM13.2467 14.975C11.4514 14.975 9.99474 13.4864 9.99474 11.6464C9.99474 9.80639 11.4514 8.31778 13.2467 8.31778C15.042 8.31778 16.4986 9.80639 16.4986 11.6464C16.4922 13.4864 15.0356 14.975 13.2467 14.975ZM57.7134 19.0064C56.4164 16.355 53.8289 14.7961 51.0881 16.355C48.3473 17.9139 46.7436 21.5811 46.1367 22.1242C45.5234 22.6736 43.8495 24.7756 43.4725 22.4372C43.0892 20.0989 43.5492 16.6617 44.0859 16.5083C44.6161 16.355 45.3061 17.0514 46.75 16.9747C48.2003 16.8981 50.89 15.5947 51.3436 12.79C51.8036 9.97889 50.43 7.64056 48.6028 6.54806C46.7756 5.45556 45.9131 5.81973 44.1625 6.28612C44.1625 6.28612 42.412 7.30195 42.2586 7.69167C42.1053 8.08139 39.5178 3.71778 38.6809 2.70195C37.8439 1.68612 36.777 0.516949 34.4897 0.983338C32.2089 1.45612 31.4422 3.55806 31.4422 3.55806C31.9725 5.27667 35.6334 4.65056 36.1636 5.19362C36.6939 5.74306 38.5211 9.09723 39.5114 9.71695C39.5114 9.71695 37.1539 9.64028 36.087 8.78417C35.02 7.92806 33.8764 5.58334 32.9628 5.81973C32.0492 6.04973 31.9725 8.63084 32.8861 9.64028C33.7997 10.6561 37.2242 12.6814 39.7414 12.5281C39.7414 12.5281 40.7764 13.0903 40.195 13.2308C39.2047 13.4672 37.6075 14.7897 37.1539 17.3644C36.9622 18.4442 37.0772 20.0989 36.7706 20.0158C36.4703 19.9392 35.1734 16.5019 34.0297 16.585C31.9725 16.7447 31.5189 19.3194 30.9886 24.3858C30.4584 29.4586 30.4584 30.5447 29.5384 30.5447C28.6247 30.5447 28.4459 29.4522 27.9156 24.3858C27.3853 19.3131 26.9253 16.7447 24.8745 16.585C23.7309 16.5019 22.4339 19.9392 22.1336 20.0158C21.827 20.0989 21.942 18.4442 21.7503 17.3644C21.2967 14.7897 19.6995 13.4672 18.7092 13.2308C18.1278 13.0967 19.1628 12.5281 19.1628 12.5281C21.6736 12.6814 25.1045 10.6561 26.0181 9.64028C26.9317 8.62445 26.855 6.04973 25.9414 5.81973C25.0278 5.58334 23.8842 7.92806 22.8172 8.78417C21.7503 9.64028 19.3928 9.71695 19.3928 9.71695C20.3831 9.09723 22.2103 5.74306 22.7406 5.19362C23.2709 4.65056 26.9317 5.27667 27.462 3.55806C27.462 3.55806 26.7017 1.44973 24.4145 0.983338C22.1336 0.516949 21.0603 1.68612 20.2297 2.70195C19.3928 3.71778 16.8053 8.08139 16.652 7.69167C16.4986 7.30195 14.7481 6.28612 14.7481 6.28612C12.9975 5.81973 12.135 5.45556 10.3078 6.54806C8.48057 7.64056 7.10696 9.97889 7.56696 12.79C8.02696 15.5947 10.7103 16.8981 12.1606 16.9747C13.6045 17.0514 14.2945 16.355 14.8247 16.5083C15.355 16.6617 15.815 20.0989 15.4381 22.4372C15.0547 24.7756 13.3808 22.6736 12.7739 22.1242C12.167 21.5811 10.5633 17.9139 7.82251 16.355C5.08168 14.7961 2.49418 16.355 1.19723 19.0064C-0.0997115 21.6578 -0.246656 27.1203 1.12057 30.3914C2.49418 33.6689 6.14862 37.8792 9.41974 39.8278C12.4672 41.6422 13.6811 41.7764 13.6811 41.7764C13.6811 41.7764 13.3745 41.1503 11.7006 39.5147C10.0267 37.8792 6.52557 33.0428 4.99862 29.8419C3.47807 26.6411 4.16168 23.7533 5.68223 23.6767C7.20279 23.6 8.95335 25.3953 10.097 29.3692C11.2406 33.3494 12.2308 37.2467 13.0678 38.8886C13.9047 40.5242 17.5592 42.7092 17.5592 42.7092C17.5592 42.7092 22.2806 44.2681 21.2903 45.4372C20.3 46.6064 17.9361 44.1914 17.1758 43.955C16.4156 43.7186 16.0322 44.0317 15.9556 45.4372C15.8789 46.8428 14.9653 46.2167 14.9653 46.2167C14.9653 46.2167 12.9847 42.5494 10.8508 42.5494C8.71696 42.5494 7.88001 45.1242 8.11001 45.4308C8.34001 45.7439 12.3011 49.5644 12.5247 49.9542C12.7547 50.3439 15.3422 53.5447 16.0258 53.5447C16.7095 53.5447 17.6997 52.6056 18.6133 51.8261C19.527 51.0467 19.1436 50.1906 18.8434 49.9542C18.5367 49.7242 18.23 48.9383 18.3833 48.4719C18.5367 47.9992 20.0572 48.3889 20.5172 48.3889C20.9772 48.3889 22.2678 50.0244 22.8045 50.0244C23.3347 50.0244 25.7753 46.9833 25.7753 46.9833L28.2095 43.3161C28.2095 43.3161 26.6889 44.645 25.9989 44.4086C25.3153 44.1722 25.3153 42.46 25.3153 41.7572C25.3153 41.0544 23.0345 39.4189 23.0345 39.4189C20.6003 36.8442 19.0733 34.0394 19.38 30.4489C19.5525 28.4172 20.6706 26.2386 22.1209 26.2386C23.5647 26.2386 26.6889 33.7264 27.2959 34.9722C27.8006 36.0072 28.5161 37.2083 29.2317 37.5406V37.6236C29.302 37.63 29.3722 37.6236 29.4489 37.6108C29.5192 37.6236 29.5895 37.63 29.6597 37.6236V37.5406C30.3689 37.2083 31.0845 36.0072 31.5892 34.9722C32.2025 33.7264 35.3203 26.2386 36.7642 26.2386C38.2145 26.2386 39.3325 28.4172 39.505 30.4489C39.8117 34.0394 38.2847 36.8442 35.8506 39.4189C35.8506 39.4189 33.5697 41.0544 33.5697 41.7572C33.5697 42.46 33.5697 44.1722 32.8861 44.4086C32.2025 44.645 30.6756 43.3161 30.6756 43.3161L33.1097 46.9833C33.1097 46.9833 35.5439 50.0244 36.0806 50.0244C36.6172 50.0244 37.9078 48.3889 38.3678 48.3889C38.8214 48.3889 40.3484 47.9992 40.5017 48.4719C40.655 48.9383 40.3484 49.7178 40.0417 49.9542C39.7414 50.1906 39.3581 51.0467 40.2717 51.8261C41.1853 52.6056 42.1756 53.5447 42.8592 53.5447C43.5428 53.5447 46.1303 50.3439 46.3603 49.9542C46.5903 49.5644 50.545 45.7439 50.775 45.4308C51.005 45.1178 50.1617 42.5494 48.0342 42.5494C45.9003 42.5494 43.9197 46.2167 43.9197 46.2167C43.9197 46.2167 43.0061 46.8428 42.9295 45.4372C42.8528 44.0317 42.4695 43.7186 41.7092 43.955C40.9489 44.185 38.585 46.6064 37.5947 45.4372C36.6045 44.2681 41.3259 42.7092 41.3259 42.7092C41.3259 42.7092 44.9803 40.5242 45.8172 38.8886C46.6542 37.2531 47.6445 33.3494 48.7881 29.3692C49.9317 25.3953 51.6822 23.6 53.2028 23.6767C54.7234 23.7533 55.4134 26.6411 53.8864 29.8419C52.3659 33.0364 48.8584 37.8728 47.1845 39.5147C45.5106 41.1503 45.2039 41.7764 45.2039 41.7764C45.2039 41.7764 46.4178 41.6422 49.4653 39.8278C52.7364 37.8792 56.3909 33.6689 57.7645 30.3914C59.1573 27.1139 59.0103 21.6578 57.7134 19.0064Z" fill="#FFEB26"/>
<path d="M11.5217 11.6464C11.5217 12.5089 12.1989 13.2053 13.0423 13.2053C13.8856 13.2053 14.5628 12.5089 14.5628 11.6464C14.5628 10.7839 13.8856 10.0875 13.0423 10.0875C12.1989 10.0875 11.5217 10.7839 11.5217 11.6464Z" fill="#FFEB26"/>
</svg>
