<svg width="1536" height="130" viewBox="0 0 1536 130" fill="none" xmlns="http://www.w3.org/2000/svg">
<mask id="mask0" mask-type="alpha" maskUnits="userSpaceOnUse" x="0" y="0" width="1536" height="130">
<rect width="1536" height="130" fill="#C4C4C4"/>
</mask>
<g mask="url(#mask0)">
<path d="M140.531 842.627C143.797 838.446 151.267 844.655 154.47 841.344C160.321 835.522 163.669 835.764 170.86 837.659C177.892 831.724 184.757 843.194 191.662 838.346C195.637 839.964 199.936 831.065 204.218 835.872C207.161 842.279 206.082 843.335 208.523 837.814C212.726 847.988 214.107 839.825 220.702 839.983C225.505 834.635 232.723 843.783 237.305 840.829C240.793 843.681 243.66 847.261 246.577 837.17C251.043 838.605 254.674 835.546 261.646 830.988C267.614 830.423 274.426 836.236 280.774 831.536C286.764 836.917 287.709 826.036 292.449 830.442C296.175 835.506 300.963 825.843 304.316 827.934C307.948 834.448 307.964 820.415 312.927 823.117C314.263 829.53 320.827 821.312 321.689 823.702C325.813 821.185 330.099 817.834 333.927 824.166C339.782 819.177 339.509 825.451 343.782 827.756C351.766 830.991 365.78 823.326 373.813 821.992C376.816 820.776 379.893 819.795 383.021 819.058C383.59 819.69 384.232 820.237 384.93 820.683C384.866 820.032 384.864 819.376 384.923 818.725L386.793 818.718C388.637 820.815 391.248 825.954 392.135 826.531C394.757 834.97 396.615 822.345 399.446 825.055C412.912 820.111 413.252 832.583 421.285 840.568C424.551 836.386 432.021 842.596 435.224 839.285C441.075 833.463 444.422 833.704 451.614 835.6C458.646 829.665 465.511 841.134 472.416 836.287C474.289 837.042 476.219 835.548 478.182 834.163C480.729 835.327 483.4 836.122 486.13 836.528C487.521 840.149 487.292 840.331 488.853 836.518L489.673 836.515C493.576 845.204 495.09 837.584 501.455 837.778C506.259 832.431 513.476 841.579 518.059 838.625C521.547 841.477 524.414 845.057 527.33 834.966C530.615 836.042 533.562 834.617 537.686 831.919C541.435 832.916 544.96 834.755 548.04 837.321C556.421 832.505 564.451 839.655 572.517 838.394C573.885 836.14 575.799 834.357 578.039 833.246C580.28 832.135 582.758 831.742 585.191 832.111L585.466 826.49C588.763 831.011 588.718 818.356 593.615 820.913C594.95 827.326 601.515 819.108 602.377 821.498C606.501 818.981 610.787 815.63 614.615 821.962C620.47 816.973 620.197 823.247 624.47 825.552C632.454 828.787 646.468 821.122 654.501 819.788C661.643 817.115 668.949 814.297 675.559 818.661C684.503 815.22 693.769 819.321 702.435 820.74C711.101 822.159 719.662 830.831 728.292 822.243C736.155 819.169 742.016 825.276 747.765 827.467C749.158 829.329 750.776 830.97 752.573 832.345C752.082 823.463 758.331 837.147 759.811 838.084C762.433 846.523 764.29 833.898 767.121 836.607C780.587 831.664 780.927 844.136 788.961 852.121C792.227 847.939 799.696 854.149 802.899 850.838C808.751 845.015 812.098 845.257 819.29 847.153C826.322 841.217 833.187 852.687 840.092 847.84C844.067 849.457 848.365 840.558 852.648 845.365C855.59 851.773 854.512 852.828 856.952 847.308C861.155 857.482 862.537 849.318 869.131 849.476C873.935 844.129 881.152 853.277 885.735 850.323C889.223 853.175 892.09 856.755 895.006 846.664C899.473 848.098 903.103 845.039 910.075 840.482C916.044 839.916 922.856 845.73 929.203 841.03C935.194 846.411 936.139 835.529 940.879 839.936C944.604 844.999 949.392 835.337 952.746 837.428C956.378 843.942 956.393 829.909 961.357 832.611C962.692 839.024 969.257 830.805 970.118 833.196C974.243 830.679 978.529 827.327 982.357 833.659C988.211 828.671 987.939 834.945 992.212 837.25C1000.2 840.485 1014.21 832.82 1022.24 831.486C1025.25 830.269 1028.32 829.289 1031.45 828.552C1032.02 829.184 1032.66 829.73 1033.36 830.177C1033.3 829.526 1033.29 828.87 1033.35 828.219L1035.22 828.212C1037.07 830.308 1039.68 835.448 1040.56 836.025C1043.19 844.464 1045.04 831.839 1047.88 834.548C1061.34 829.605 1061.68 842.077 1069.71 850.062C1072.98 845.88 1080.45 852.09 1083.65 848.779C1089.5 842.956 1092.85 843.198 1100.04 845.094C1107.08 839.158 1113.94 850.628 1120.85 845.781C1122.72 846.535 1124.65 845.042 1126.61 843.657C1129.16 844.82 1131.83 845.615 1134.56 846.022C1135.95 849.643 1135.72 849.825 1137.28 846.012L1137.87 846.01C1141.78 854.734 1143.29 847.078 1149.66 847.273C1154.46 841.925 1161.68 851.073 1166.26 848.12C1169.75 850.972 1172.61 854.551 1175.53 844.46C1178.81 845.536 1181.76 844.112 1185.89 841.414C1189.64 842.411 1193.16 844.25 1196.24 846.816C1204.62 841.999 1212.65 849.15 1220.72 847.888C1222.09 845.634 1224 843.851 1226.24 842.74C1228.48 841.63 1230.96 841.237 1233.39 841.606L1233.67 835.984C1236.96 840.505 1236.92 827.851 1241.81 830.407C1243.15 836.821 1249.71 828.602 1250.58 830.992C1254.7 828.476 1258.99 825.124 1262.82 831.456C1268.67 826.467 1268.4 832.741 1272.67 835.047C1280.65 838.281 1294.67 830.617 1302.7 829.282C1309.84 826.61 1317.15 823.792 1323.76 828.155C1332.7 824.715 1341.97 828.815 1350.63 830.234C1359.3 831.654 1367.86 840.325 1376.49 831.737C1385.5 828.079 1391.9 836.758 1398.49 837.641C1405.06 839.684 1411.64 844.846 1420.27 843.473C1428.82 840.506 1436.31 845.084 1444.87 842.841C1455.74 836.783 1466.43 835.874 1476.79 844.249C1485.18 839.433 1493.21 846.584 1501.27 845.322C1502.64 843.068 1504.55 841.285 1506.79 840.174C1509.03 839.064 1511.51 838.671 1513.95 839.04L1520.97 639.113L1535.91 231.17L1543.04 32.3674C1542.13 32.238 1541.24 32.0105 1540.38 31.688C1534.91 35.0072 1529.52 23.3509 1523.98 32.7984C1519.02 31.4383 1515.53 37.2161 1510.71 37.8136C1507.4 28.7242 1503.63 40.7035 1499.72 38.9046C1492.88 42.5551 1491.26 37.8834 1486.09 43.7761C1481.16 50.3931 1474.47 49.1118 1469.94 48.294C1468.15 51.5165 1466.81 55.017 1465.97 58.6786C1465.91 58.5061 1465.79 58.3647 1465.64 58.281C1461.88 71.9282 1450.71 65.2965 1436.99 65.0194C1426.73 58.3118 1416.51 62.8085 1406 66.7623C1397.73 67.5897 1388.77 65.8089 1380.44 65.8025C1375.62 58.5678 1371.33 78.7075 1367.31 63.6378C1359.95 70.2272 1359.71 51.2278 1351.67 59.7053C1346.92 60.7739 1343.18 50.5982 1338.35 57.3599C1333.42 56.9425 1327.85 58.3404 1322.93 56.7626C1315.03 49.7202 1306.52 56.2051 1298.51 55.6536C1287.77 52.0662 1276.92 64.1797 1266.52 52.6138C1259.23 51.4072 1251.79 44.0006 1245.83 47.4304C1241.17 39.2161 1239.38 41.8332 1233.4 39.7879C1228 33.2805 1220.73 36.57 1214.45 34.2356C1207.89 33.1351 1198.59 29.9413 1192.4 33.9158C1186.26 30.747 1184.72 41.1954 1177.75 35.7814C1165.19 38.3285 1155.62 23.2424 1147.25 38.828C1145.83 37.8178 1144.18 33.545 1141.55 43.5622C1137.44 38.6819 1129.15 51.9103 1124.76 43.0061C1113.8 43.9519 1105.09 49.2046 1094.52 46.7406C1083.76 45.6914 1073.72 46.8152 1062.83 46.8543C1052.29 36.5943 1040.87 42.8358 1030.02 45.4129C1026.87 43.7586 1023.43 42.9062 1019.95 42.9187C1016.47 42.9312 1013.04 43.8083 1009.91 45.4851C1011.76 49.9021 1003.35 46.9227 1000.07 47.3334C993.936 46.9928 979.672 49.0383 965.426 46.7688L963.69 47.6815C960.062 42.3643 958.067 44.0757 952.681 42.4271C947.277 35.9196 940.006 39.2091 933.732 36.8748C927.166 35.7743 917.871 32.5805 911.684 36.555C905.538 33.3862 904.001 43.8346 897.026 38.4206C885.323 40.7833 876.255 27.9073 868.288 38.5238C866.266 32.9107 864.283 28.6392 862.479 28.8995C859.166 19.8101 855.403 31.7894 851.493 29.9904C844.649 33.641 843.025 28.9693 837.863 34.8619C832.933 41.4789 826.235 40.1976 821.705 39.3799C819.934 42.5968 818.598 46.0831 817.74 49.7282V49.7282C817.671 49.5693 817.555 49.4416 817.41 49.3668L817.412 49.6932C816.231 49.5918 815.057 49.4022 813.899 49.1256C803.135 48.0764 793.1 49.2002 782.208 49.2393C771.673 38.9793 760.246 45.2208 749.396 47.7979C746.252 46.1436 742.813 45.2912 739.332 45.3037C735.851 45.3162 732.418 46.1933 729.286 47.8701C731.139 52.2872 722.73 49.3078 719.45 49.7184C717.22 49.7264 713.873 49.7384 709.839 49.9704C708.357 48.4166 706.55 47.8066 704.066 50.1725L700.522 50.1852C697.038 48.2759 693.935 42.9568 690.116 48.4095C685.194 47.9921 679.622 49.39 674.695 47.8122C666.796 40.7698 658.289 47.2547 650.283 46.7032C639.542 43.1158 628.693 55.2293 618.285 43.6634C610.998 42.4568 603.557 35.0502 597.598 38.48C592.976 30.2656 591.18 32.8102 585.137 30.8376C579.733 24.3302 572.462 27.6197 566.187 25.2853C559.622 24.1848 550.326 20.991 544.14 24.9656C537.994 21.7967 536.456 32.2451 529.482 26.8312C516.926 29.3782 507.358 14.2921 498.982 29.8777C497.568 28.8675 495.912 24.5947 493.291 34.6119C489.173 29.7316 480.887 42.96 476.492 34.0558C465.538 35.0016 456.83 40.2543 446.257 37.7903C435.493 36.7411 425.458 37.8649 414.566 37.904C404.031 27.644 392.604 33.8855 381.754 36.4626C378.61 34.8083 375.171 33.9559 371.69 33.9684C368.209 33.9809 364.776 34.858 361.644 36.5348C363.497 40.9519 355.088 37.9725 351.808 38.3831C345.672 38.0425 331.409 40.088 317.162 37.8185L315.427 38.7312C311.799 33.414 309.804 35.1254 304.418 33.4768C299.014 26.9694 291.743 30.2589 285.468 27.9245C278.903 26.824 269.607 23.6302 263.421 27.6047C257.275 24.4359 255.737 34.8843 248.763 29.4704C236.207 32.0174 226.639 16.9313 218.263 32.5169C216.849 31.5067 215.193 27.2339 212.572 37.2511C208.453 32.1895 200.168 45.5629 195.772 36.4774C184.818 37.4232 176.11 42.6759 165.538 40.2119C154.773 39.1628 144.738 40.2866 133.846 40.3257C123.311 30.0656 111.884 36.3071 101.034 38.8842C97.8906 37.23 94.4511 36.3776 90.9701 36.3901C87.4892 36.4026 84.0559 37.2796 80.924 38.9564C82.7771 43.3735 74.3678 40.3941 71.0886 40.8047C64.9525 40.4641 50.6888 42.5096 36.4425 40.2401C19.1549 49.8386 15.566 46.2254 1.76125 39.023L-3.42217 39.0416L-10.6476 237.954L-23.1448 585.914L-30.2721 784.753C-29.2669 782.655 -27.856 780.828 -26.1396 779.402C-24.4232 777.975 -22.4433 776.984 -20.3407 776.499C-18.238 776.014 -16.0642 776.046 -13.9735 776.594C-11.8829 777.142 -9.92675 778.192 -8.24407 779.67C12.9199 780.645 16.5158 786.217 23.2225 781.007C29.5487 788.599 23.2302 783.147 31.2392 784.278C32.7959 788.406 47.1481 792.742 51.9186 787.359C56.5875 799.38 53.6737 791.921 60.729 792.44C64.6338 792.643 65.6919 785.823 72.2548 795.372C77.3265 795.443 82.3323 796.659 86.9651 798.945C86.4402 798.947 86.7302 797.495 86.9965 807.683C92.8688 807.662 100.79 820.796 104.241 822.669C103.75 813.787 109.999 827.471 111.479 828.409C114.101 836.848 115.959 824.223 118.79 826.932C132.256 822.134 132.596 834.606 140.531 842.627Z" fill="white"/>
</g>
</svg>
