<svg width="1423" height="102" viewBox="0 0 1423 102" fill="none" xmlns="http://www.w3.org/2000/svg">
<mask id="mask0" mask-type="alpha" maskUnits="userSpaceOnUse" x="0" y="0" width="1423" height="102">
<rect width="1423" height="102" fill="#C4C4C4"/>
</mask>
<g mask="url(#mask0)">
<path d="M102.595 838.588C105.875 834.419 113.323 840.655 116.538 837.356C122.41 831.554 125.756 831.808 132.941 833.73C139.994 827.819 146.818 839.314 153.74 834.491C157.71 836.123 162.04 827.239 166.305 832.062C169.225 838.48 168.142 839.531 170.603 834.02C174.769 844.209 176.18 836.05 182.774 836.232C187.597 830.901 194.781 840.075 199.374 837.138C202.852 840.003 205.706 843.592 208.659 833.512C213.12 834.962 216.762 831.917 223.75 827.384C229.721 826.84 236.512 832.678 242.876 828.001C248.847 833.403 249.831 822.525 254.555 826.949C258.262 832.025 263.085 822.38 266.431 824.483C270.04 831.01 270.106 816.978 275.059 819.697C276.372 826.115 282.966 817.92 283.819 820.314C287.952 817.812 292.25 814.476 296.056 820.821C301.928 815.854 301.633 822.127 305.898 824.447C313.87 827.711 327.911 820.096 335.949 818.791C338.956 817.585 342.036 816.616 345.167 815.89C345.734 816.524 346.374 817.073 347.07 817.522C347.009 816.871 347.009 816.214 347.07 815.563H348.94C350.777 817.667 353.369 822.815 354.255 823.396C356.846 831.844 358.749 819.226 361.571 821.945C375.054 817.05 375.349 829.524 383.354 837.537C386.635 833.367 394.082 839.604 397.297 836.304C403.17 830.503 406.516 830.756 413.7 832.678C420.754 826.768 427.578 838.262 434.5 833.44C436.37 834.201 438.305 832.714 440.274 831.336C442.816 832.509 445.484 833.313 448.213 833.73C449.591 837.356 449.361 837.537 450.936 833.73H451.756C455.627 842.432 457.169 834.817 463.534 835.035C468.356 829.705 475.541 838.879 480.134 835.941C483.611 838.806 486.466 842.396 489.418 832.316C492.699 833.403 495.652 831.989 499.785 829.306C503.531 830.317 507.048 832.168 510.119 834.745C518.518 829.959 526.523 837.138 534.593 835.905C535.969 833.657 537.889 831.88 540.133 830.777C542.378 829.675 544.857 829.291 547.289 829.669L547.585 824.048C550.865 828.581 550.865 815.926 555.753 818.501C557.066 824.919 563.66 816.724 564.513 819.117C568.646 816.615 572.944 813.279 576.75 819.625C582.622 814.657 582.327 820.93 586.592 823.251C594.564 826.514 608.605 818.899 616.643 817.594C623.794 814.947 631.11 812.155 637.704 816.542C646.661 813.134 655.912 817.268 664.573 818.718C673.234 820.168 681.764 828.871 690.425 820.314C698.298 817.268 704.138 823.396 709.879 825.607C711.265 827.474 712.877 829.121 714.669 830.503C714.21 821.619 720.41 835.325 721.886 836.268C724.478 844.716 726.381 832.098 729.202 834.817C742.686 829.922 742.981 842.396 750.986 850.409C754.267 846.239 761.714 852.476 764.929 849.176C770.801 843.375 774.147 843.629 781.332 845.55C788.386 839.64 795.209 851.134 802.132 846.312C806.101 847.943 810.432 839.06 814.696 843.882C817.616 850.3 816.534 851.352 818.994 845.84C823.161 856.029 824.571 847.871 831.165 848.052C835.988 842.722 843.173 851.896 847.766 848.959C851.243 851.823 854.097 855.413 857.05 845.333C861.512 846.783 865.153 843.737 872.141 839.205C878.112 838.661 884.903 844.499 891.267 839.821C897.238 845.224 898.222 834.346 902.946 838.77C906.654 843.846 911.476 834.201 914.822 836.304C918.431 842.831 918.497 828.798 923.451 831.518C924.763 837.936 931.357 829.741 932.21 832.134C936.344 829.632 940.641 826.296 944.447 832.642C950.319 827.674 950.024 833.947 954.289 836.268C962.261 839.531 976.302 831.917 984.34 830.611C987.347 829.406 990.428 828.436 993.558 827.71C994.125 828.345 994.765 828.893 995.461 829.342C995.4 828.691 995.4 828.035 995.461 827.384H997.331C999.168 829.487 1001.76 834.636 1002.65 835.216C1005.24 843.665 1007.14 831.046 1009.96 833.766C1023.45 828.871 1023.74 841.344 1031.75 849.358C1035.03 845.188 1042.47 851.424 1045.69 848.125C1051.56 842.323 1054.91 842.577 1062.09 844.499C1069.15 838.588 1075.97 850.083 1082.89 845.26C1084.76 846.022 1086.7 844.535 1088.67 843.157C1091.21 844.33 1093.88 845.134 1096.6 845.55C1097.98 849.176 1097.75 849.358 1099.33 845.55H1099.92C1103.79 854.289 1105.33 846.638 1111.7 846.856C1116.52 841.525 1123.7 850.699 1128.3 847.762C1131.77 850.627 1134.63 854.216 1137.58 844.136C1140.86 845.224 1143.81 843.81 1147.95 841.127C1151.69 842.137 1155.21 843.989 1158.28 846.566C1166.68 841.779 1174.68 848.959 1182.75 847.726C1184.13 845.477 1186.05 843.701 1188.29 842.598C1190.54 841.496 1193.02 841.111 1195.45 841.489L1195.75 835.869C1199.03 840.401 1199.03 827.747 1203.91 830.321C1205.23 836.739 1211.82 828.544 1212.67 830.938C1216.81 828.436 1221.11 825.1 1224.91 831.445C1230.78 826.478 1230.49 832.751 1234.75 835.071C1242.73 838.335 1256.77 830.72 1264.8 829.415C1271.96 826.768 1279.27 823.976 1285.87 828.363C1294.82 824.955 1304.07 829.088 1312.73 830.539C1321.4 831.989 1329.93 840.692 1338.59 832.134C1347.61 828.508 1353.97 837.211 1360.57 838.117C1367.13 840.184 1373.69 845.369 1382.32 844.027C1390.88 841.09 1398.36 845.695 1406.92 843.484C1417.81 837.464 1428.51 836.594 1438.84 845.006C1447.24 840.22 1455.25 847.4 1463.32 846.167C1464.69 843.918 1466.61 842.142 1468.86 841.039C1471.1 839.936 1473.58 839.552 1476.01 839.93L1483.76 640.03L1500.16 232.143L1508 33.3673C1507.1 33.2348 1506.21 33.004 1505.34 32.6784C1499.86 35.978 1494.52 24.3024 1488.94 33.7299C1483.99 32.3521 1480.48 38.1174 1475.65 38.6975C1472.37 29.5963 1468.57 41.562 1464.66 39.7491C1457.81 43.375 1456.2 38.6975 1451.01 44.5716C1446.06 51.1709 1439.37 49.8655 1434.84 49.0316C1433.05 52.2476 1431.7 55.7433 1430.84 59.4019C1430.78 59.2291 1430.66 59.0873 1430.51 59.003C1426.71 72.6367 1415.55 65.9649 1401.84 65.6385C1391.6 58.8942 1381.37 63.3542 1370.84 67.2702C1362.57 68.0679 1353.61 66.255 1345.28 66.2187C1340.49 58.9667 1336.13 79.0909 1332.16 64.0069C1324.77 70.5699 1324.61 51.5697 1316.54 60.0183C1311.78 61.0698 1308.08 50.8808 1303.22 57.6251C1298.3 57.19 1292.72 58.5679 1287.8 56.9725C1279.93 49.9018 1271.4 56.356 1263.39 55.7759C1252.67 52.1499 1241.77 64.2244 1231.41 52.6213C1224.12 51.3884 1216.71 43.9552 1210.74 47.3636C1206.11 39.1326 1204.31 41.7433 1198.34 39.6765C1192.96 33.1498 1185.67 36.4132 1179.41 34.0563C1172.85 32.9322 1163.56 29.7051 1157.36 33.6574C1151.23 30.4666 1149.65 40.9094 1142.7 35.4704C1130.13 37.9723 1120.62 22.852 1112.19 38.4074C1110.78 37.3922 1109.14 33.1135 1106.48 43.1212C1102.38 38.2261 1094.05 51.4247 1089.68 42.5048C1078.72 43.4113 1070 48.6327 1059.43 46.1308C1048.67 45.043 1038.63 46.1308 1027.74 46.1308C1017.24 35.833 1005.8 42.0334 994.936 44.5716C991.799 42.9061 988.362 42.0413 984.881 42.0413C981.4 42.0413 977.964 42.9061 974.826 44.5716C976.663 48.9953 968.265 45.9857 964.984 46.3846C958.849 46.022 944.578 48.0163 930.34 45.6957L928.601 46.6022C924.993 41.272 922.991 42.9762 917.611 41.3082C912.231 34.7815 904.948 38.0448 898.682 35.688C892.12 34.5639 882.836 31.3368 876.635 35.2891C870.501 32.0982 868.926 42.5411 861.971 37.1021C850.259 39.4227 841.237 26.5142 833.232 37.1021C831.231 31.4818 829.263 27.2032 827.458 27.457C824.178 18.3558 820.372 30.3215 816.468 28.5085C809.611 32.1345 808.004 27.457 802.82 33.3311C797.867 39.9304 791.174 38.625 786.647 37.791C784.864 41.0015 783.515 44.4831 782.644 48.1251V48.1251C782.576 47.9659 782.46 47.8378 782.316 47.7625V48.0888C781.136 47.9832 779.963 47.7894 778.806 47.5087C768.045 46.4209 758.007 47.5087 747.115 47.5087C736.617 37.2109 725.167 43.4113 714.308 45.9495C711.17 44.2839 707.734 43.4192 704.253 43.4192C700.772 43.4192 697.335 44.2839 694.198 45.9495C696.035 50.3732 687.636 47.3636 684.356 47.7625C682.125 47.7625 678.778 47.7625 674.743 47.98C673.267 46.4209 671.463 45.8044 668.969 48.1613H665.426C661.949 46.2396 658.865 40.9094 655.026 46.3483C650.105 45.9132 644.528 47.2911 639.607 45.6957C631.734 38.625 623.204 45.0792 615.199 44.4991C604.471 40.8731 593.579 52.9476 583.213 41.3445C575.929 40.1117 568.515 32.6784 562.544 36.0868C557.951 27.8558 556.147 30.394 550.111 28.3997C544.73 21.873 537.447 25.1364 531.181 22.7795C524.62 21.6554 515.336 18.4283 509.135 22.3806C503 19.1898 501.425 29.6326 494.47 24.1936C481.906 26.6955 472.392 11.5752 463.96 27.1307C462.55 26.1154 460.909 21.8367 458.252 31.8444C454.151 26.9494 445.818 40.1479 441.455 31.228C430.497 32.1345 421.771 37.3559 411.207 34.854C400.447 33.7662 390.408 34.854 379.516 34.854C369.018 24.5562 357.568 30.7566 346.709 33.2948C343.571 31.6293 340.135 30.7645 336.654 30.7645C333.173 30.7645 329.737 31.6293 326.599 33.2948C328.436 37.7185 320.037 34.7089 316.757 35.1078C310.622 34.7452 296.351 36.7395 282.113 34.4189L280.374 35.3254C276.765 29.9952 274.764 31.6994 269.384 30.0314C264.004 23.5047 256.72 26.7681 250.454 24.4112C243.893 23.2871 234.609 20.06 228.408 24.0123C222.273 20.8214 220.699 31.2643 213.744 25.8253C201.179 28.3272 191.665 13.2069 183.234 28.7623C181.823 27.7471 180.183 23.4684 177.525 33.4761C173.424 28.3997 165.091 41.7433 160.728 32.6421C149.771 33.5486 141.044 38.77 130.48 36.2681C119.72 35.1803 109.681 36.2681 98.7892 36.2681C88.291 25.9703 76.8415 32.1708 65.9825 34.7089C62.8446 33.0434 59.4082 32.1787 55.9272 32.1787C52.4463 32.1787 49.0098 33.0434 45.872 34.7089C47.7091 39.1326 39.3106 36.1231 36.03 36.5219C29.8951 36.1593 15.6242 38.1536 1.38612 35.833C-15.9358 45.3693 -19.5117 41.7433 -33.2905 34.4914H-38.474L-46.4132 233.376L-60.1592 581.289L-68 780.101C-66.9874 778.007 -65.5699 776.185 -63.8484 774.765C-62.1268 773.345 -60.1434 772.361 -58.0391 771.883C-55.9347 771.405 -53.761 771.446 -51.6723 772.001C-49.5836 772.557 -47.6313 773.614 -45.9539 775.098C-24.7936 776.149 -21.2177 781.733 -14.4923 776.548C-8.19343 784.162 -14.4923 778.687 -6.48748 779.848C-4.94557 783.981 9.39095 788.369 14.1807 783.002C18.8065 795.04 15.9195 787.571 22.9729 788.115C26.8769 788.332 27.9595 781.516 34.4881 791.088C39.5595 791.178 44.5609 792.412 49.1855 794.714C48.6606 794.714 48.9558 793.264 49.1855 803.453C55.0579 803.453 62.9314 816.615 66.3761 818.501C65.9169 809.617 72.1173 823.323 73.5936 824.266C76.1853 832.714 78.0881 820.096 80.9095 822.815C94.3931 818.065 94.6883 830.539 102.595 838.588Z" fill="white"/>
</g>
</svg>
