<svg width="1536" height="224" viewBox="0 0 1536 224" fill="none" xmlns="http://www.w3.org/2000/svg">
<mask id="mask0" mask-type="alpha" maskUnits="userSpaceOnUse" x="0" y="0" width="1536" height="130">
<path d="M1536 0H0V130H1536V0Z" fill="#C4C4C4"/>
</mask>
<g mask="url(#mask0)">
<path d="M140.531 842.627C143.797 838.446 151.267 844.655 154.47 841.344C160.321 835.522 163.669 835.764 170.86 837.659C177.892 831.724 184.757 843.194 191.662 838.346C195.637 839.964 199.936 831.065 204.218 835.872C207.161 842.279 206.082 843.335 208.523 837.814C212.726 847.988 214.107 839.825 220.702 839.983C225.505 834.635 232.723 843.783 237.305 840.829C240.793 843.681 243.66 847.261 246.577 837.17C251.043 838.605 254.674 835.546 261.646 830.988C267.614 830.423 274.426 836.236 280.774 831.536C286.764 836.917 287.709 826.036 292.449 830.442C296.175 835.506 300.963 825.843 304.316 827.934C307.948 834.448 307.964 820.415 312.927 823.117C314.263 829.53 320.827 821.312 321.689 823.702C325.813 821.185 330.099 817.834 333.927 824.166C339.782 819.177 339.509 825.451 343.782 827.756C351.766 830.991 365.78 823.326 373.813 821.992C376.816 820.776 379.893 819.795 383.021 819.058C383.59 819.69 384.232 820.237 384.93 820.683C384.866 820.032 384.864 819.376 384.923 818.725L386.793 818.718C388.637 820.815 391.248 825.954 392.135 826.531C394.757 834.97 396.615 822.345 399.446 825.055C412.912 820.111 413.252 832.583 421.285 840.568C424.551 836.386 432.021 842.596 435.224 839.285C441.075 833.463 444.422 833.704 451.614 835.6C458.646 829.665 465.511 841.134 472.416 836.287C474.289 837.042 476.219 835.548 478.182 834.163C480.729 835.327 483.4 836.122 486.13 836.528C487.521 840.149 487.292 840.331 488.853 836.518L489.673 836.515C493.576 845.204 495.09 837.584 501.455 837.778C506.259 832.431 513.476 841.579 518.059 838.625C521.547 841.477 524.414 845.057 527.33 834.966C530.615 836.042 533.562 834.617 537.686 831.919C541.435 832.916 544.96 834.755 548.04 837.321C556.421 832.505 564.451 839.655 572.517 838.394C573.885 836.14 575.799 834.357 578.039 833.246C580.28 832.135 582.758 831.742 585.191 832.111L585.466 826.49C588.763 831.011 588.718 818.356 593.615 820.913C594.95 827.326 601.515 819.108 602.377 821.498C606.501 818.981 610.787 815.63 614.615 821.962C620.47 816.973 620.197 823.247 624.47 825.552C632.454 828.787 646.468 821.122 654.501 819.788C661.643 817.115 668.949 814.297 675.559 818.661C684.503 815.22 693.769 819.321 702.435 820.74C711.101 822.159 719.662 830.831 728.292 822.243C736.155 819.169 742.016 825.276 747.765 827.467C749.158 829.329 750.776 830.97 752.573 832.345C752.082 823.463 758.331 837.147 759.811 838.084C762.433 846.523 764.29 833.898 767.121 836.607C780.587 831.664 780.927 844.136 788.961 852.121C792.227 847.939 799.696 854.149 802.899 850.838C808.751 845.015 812.098 845.257 819.29 847.153C826.322 841.217 833.187 852.687 840.092 847.84C844.067 849.457 848.365 840.558 852.648 845.365C855.59 851.773 854.512 852.828 856.952 847.308C861.155 857.482 862.537 849.318 869.131 849.476C873.935 844.129 881.152 853.277 885.735 850.323C889.223 853.175 892.09 856.755 895.006 846.664C899.473 848.098 903.103 845.039 910.075 840.482C916.044 839.916 922.856 845.73 929.203 841.03C935.194 846.411 936.139 835.529 940.879 839.936C944.604 844.999 949.392 835.337 952.746 837.428C956.378 843.942 956.393 829.909 961.357 832.611C962.692 839.024 969.257 830.805 970.118 833.196C974.243 830.679 978.529 827.327 982.357 833.659C988.211 828.671 987.939 834.945 992.212 837.25C1000.2 840.485 1014.21 832.82 1022.24 831.486C1025.25 830.269 1028.32 829.289 1031.45 828.552C1032.02 829.184 1032.66 829.73 1033.36 830.177C1033.3 829.526 1033.29 828.87 1033.35 828.219L1035.22 828.212C1037.07 830.308 1039.68 835.448 1040.56 836.025C1043.19 844.464 1045.04 831.839 1047.88 834.548C1061.34 829.605 1061.68 842.077 1069.71 850.062C1072.98 845.88 1080.45 852.09 1083.65 848.779C1089.5 842.956 1092.85 843.198 1100.04 845.094C1107.08 839.158 1113.94 850.628 1120.85 845.781C1122.72 846.535 1124.65 845.042 1126.61 843.657C1129.16 844.82 1131.83 845.615 1134.56 846.022C1135.95 849.643 1135.72 849.825 1137.28 846.012L1137.87 846.01C1141.78 854.734 1143.29 847.078 1149.66 847.273C1154.46 841.925 1161.68 851.073 1166.26 848.12C1169.75 850.972 1172.61 854.551 1175.53 844.46C1178.81 845.536 1181.76 844.112 1185.89 841.414C1189.64 842.411 1193.16 844.25 1196.24 846.816C1204.62 841.999 1212.65 849.15 1220.72 847.888C1222.09 845.634 1224 843.851 1226.24 842.74C1228.48 841.63 1230.96 841.237 1233.39 841.606L1233.67 835.984C1236.96 840.505 1236.92 827.851 1241.81 830.407C1243.15 836.821 1249.71 828.602 1250.58 830.992C1254.7 828.476 1258.99 825.124 1262.82 831.456C1268.67 826.467 1268.4 832.741 1272.67 835.047C1280.65 838.281 1294.67 830.617 1302.7 829.282C1309.84 826.61 1317.15 823.792 1323.76 828.155C1332.7 824.715 1341.97 828.815 1350.63 830.234C1359.3 831.654 1367.86 840.325 1376.49 831.737C1385.5 828.079 1391.9 836.758 1398.49 837.641C1405.06 839.684 1411.64 844.846 1420.27 843.473C1428.82 840.506 1436.31 845.084 1444.87 842.841C1455.74 836.783 1466.43 835.874 1476.79 844.249C1485.18 839.433 1493.21 846.584 1501.27 845.322C1502.64 843.068 1504.55 841.285 1506.79 840.174C1509.03 839.064 1511.51 838.671 1513.95 839.04L1520.97 639.113L1535.91 231.17L1543.04 32.3675C1542.13 32.2381 1541.24 32.0106 1540.38 31.6881C1534.91 35.0073 1529.52 23.351 1523.98 32.7985C1519.02 31.4384 1515.53 37.2162 1510.71 37.8137C1507.4 28.7243 1503.63 40.7036 1499.72 38.9047C1492.88 42.5552 1491.26 37.8835 1486.09 43.7762C1481.16 50.3932 1474.47 49.1119 1469.94 48.2941C1468.15 51.5166 1466.81 55.0171 1465.97 58.6787C1465.91 58.5062 1465.79 58.3648 1465.64 58.2811C1461.88 71.9283 1450.71 65.2966 1436.99 65.0195C1426.73 58.3119 1416.51 62.8086 1406 66.7624C1397.73 67.5898 1388.77 65.809 1380.44 65.8026C1375.62 58.5679 1371.33 78.7076 1367.31 63.6379C1359.95 70.2273 1359.71 51.2279 1351.67 59.7054C1346.92 60.774 1343.18 50.5983 1338.35 57.36C1333.42 56.9426 1327.85 58.3405 1322.93 56.7627C1315.03 49.7203 1306.52 56.2052 1298.51 55.6537C1287.77 52.0663 1276.92 64.1798 1266.52 52.6139C1259.23 51.4073 1251.79 44.0007 1245.83 47.4305C1241.17 39.2162 1239.38 41.8333 1233.4 39.788C1228 33.2806 1220.73 36.5701 1214.45 34.2357C1207.89 33.1352 1198.59 29.9414 1192.4 33.9159C1186.26 30.7471 1184.72 41.1955 1177.75 35.7815C1165.19 38.3286 1155.62 23.2425 1147.25 38.8281C1145.83 37.8179 1144.18 33.5451 1141.55 43.5623C1137.44 38.682 1129.15 51.9104 1124.76 43.0062C1113.8 43.952 1105.09 49.2047 1094.52 46.7407C1083.76 45.6915 1073.72 46.8153 1062.83 46.8544C1052.29 36.5944 1040.87 42.8359 1030.02 45.413C1026.87 43.7587 1023.43 42.9063 1019.95 42.9188C1016.47 42.9313 1013.04 43.8084 1009.91 45.4852C1011.76 49.9022 1003.35 46.9228 1000.07 47.3335C993.936 46.9929 979.672 49.0384 965.426 46.7689L963.69 47.6816C960.062 42.3644 958.067 44.0758 952.681 42.4272C947.277 35.9197 940.006 39.2092 933.732 36.8749C927.166 35.7744 917.871 32.5806 911.684 36.5551C905.538 33.3863 904.001 43.8347 897.026 38.4207C885.323 40.7834 876.255 27.9074 868.288 38.5239C866.266 32.9108 864.283 28.6393 862.479 28.8996C859.166 19.8102 855.403 31.7895 851.493 29.9905C844.649 33.6411 843.025 28.9694 837.863 34.862C832.933 41.479 826.235 40.1977 821.705 39.38C819.934 42.5969 818.598 46.0832 817.74 49.7283C817.671 49.5694 817.555 49.4417 817.41 49.3669L817.412 49.6933C816.231 49.5919 815.057 49.4023 813.899 49.1257C803.135 48.0765 793.1 49.2003 782.208 49.2394C771.673 38.9794 760.246 45.2209 749.396 47.798C746.252 46.1437 742.813 45.2913 739.332 45.3038C735.851 45.3163 732.418 46.1934 729.286 47.8702C731.139 52.2873 722.73 49.3079 719.45 49.7185C717.22 49.7265 713.873 49.7385 709.839 49.9705C708.357 48.4167 706.55 47.8067 704.066 50.1726L700.522 50.1853C697.038 48.276 693.935 42.9569 690.116 48.4096C685.194 47.9922 679.622 49.3901 674.695 47.8123C666.796 40.7699 658.289 47.2548 650.283 46.7033C639.542 43.1159 628.693 55.2294 618.285 43.6635C610.998 42.4569 603.557 35.0503 597.598 38.4801C592.976 30.2657 591.18 32.8103 585.137 30.8377C579.733 24.3303 572.462 27.6198 566.187 25.2854C559.622 24.1849 550.326 20.9911 544.14 24.9657C537.994 21.7968 536.456 32.2452 529.482 26.8313C516.926 29.3783 507.358 14.2922 498.982 29.8778C497.568 28.8676 495.912 24.5948 493.291 34.612C489.173 29.7317 480.887 42.9601 476.492 34.0559C465.538 35.0017 456.83 40.2544 446.257 37.7904C435.493 36.7412 425.458 37.865 414.566 37.9041C404.031 27.6441 392.604 33.8856 381.754 36.4627C378.61 34.8084 375.171 33.956 371.69 33.9685C368.209 33.981 364.776 34.8581 361.644 36.5349C363.497 40.952 355.088 37.9726 351.808 38.3832C345.672 38.0426 331.409 40.0881 317.162 37.8186L315.427 38.7313C311.799 33.4141 309.804 35.1255 304.418 33.4769C299.014 26.9695 291.743 30.259 285.468 27.9246C278.903 26.8241 269.607 23.6303 263.421 27.6048C257.275 24.436 255.737 34.8844 248.763 29.4705C236.207 32.0175 226.639 16.9314 218.263 32.517C216.849 31.5068 215.193 27.234 212.572 37.2512C208.453 32.1896 200.168 45.563 195.772 36.4775C184.818 37.4233 176.11 42.676 165.538 40.212C154.773 39.1629 144.738 40.2867 133.846 40.3258C123.311 30.0657 111.884 36.3072 101.034 38.8843C97.8905 37.2301 94.451 36.3777 90.97 36.3902C87.4891 36.4027 84.0558 37.2797 80.9239 38.9565C82.777 43.3736 74.3677 40.3942 71.0885 40.8048C64.9524 40.4642 50.6887 42.5097 36.4424 40.2402C19.1548 49.8387 15.5659 46.2255 1.76114 39.0231L-3.42229 39.0417L-10.6477 237.954L-23.1449 585.914L-30.2722 784.753C-29.267 782.655 -27.8561 780.828 -26.1397 779.402C-24.4233 777.975 -22.4434 776.984 -20.3408 776.499C-18.2381 776.014 -16.0643 776.046 -13.9736 776.594C-11.883 777.142 -9.92687 778.192 -8.24419 779.67C12.9198 780.645 16.5157 786.217 23.2224 781.007C29.5486 788.599 23.2301 783.147 31.2391 784.278C32.7958 788.406 47.148 792.742 51.9185 787.359C56.5874 799.38 53.6736 791.921 60.7289 792.44C64.6337 792.643 65.6918 785.823 72.2547 795.372C77.3264 795.443 82.3322 796.659 86.965 798.945C86.4401 798.947 86.7301 797.495 86.9964 807.683C92.8687 807.662 100.79 820.796 104.241 822.669C103.75 813.787 109.999 827.471 111.479 828.409C114.101 836.848 115.959 824.223 118.79 826.932C132.256 822.134 132.596 834.606 140.531 842.627Z" fill="#1565E5"/>
</g>
<mask id="mask1" mask-type="alpha" maskUnits="userSpaceOnUse" x="0" y="94" width="1536" height="131">
<path d="M0 224L1536 224L1536 94.0002L1.1365e-05 94.0001L0 224Z" fill="#C4C4C4"/>
</mask>
<g mask="url(#mask1)">
<path d="M1395.47 -618.627C1392.2 -614.446 1384.73 -620.655 1381.53 -617.344C1375.68 -611.522 1372.33 -611.764 1365.14 -613.659C1358.11 -607.724 1351.24 -619.194 1344.34 -614.346C1340.36 -615.964 1336.06 -607.065 1331.78 -611.872C1328.84 -618.279 1329.92 -619.335 1327.48 -613.814C1323.27 -623.988 1321.89 -615.825 1315.3 -615.983C1310.5 -610.635 1303.28 -619.783 1298.7 -616.829C1295.21 -619.681 1292.34 -623.261 1289.42 -613.17C1284.96 -614.605 1281.33 -611.546 1274.35 -606.988C1268.39 -606.423 1261.57 -612.236 1255.23 -607.536C1249.24 -612.917 1248.29 -602.036 1243.55 -606.442C1239.83 -611.506 1235.04 -601.843 1231.68 -603.934C1228.05 -610.448 1228.04 -596.415 1223.07 -599.117C1221.74 -605.53 1215.17 -597.312 1214.31 -599.702C1210.19 -597.185 1205.9 -593.834 1202.07 -600.166C1196.22 -595.177 1196.49 -601.451 1192.22 -603.756C1184.23 -606.991 1170.22 -599.326 1162.19 -597.992C1159.18 -596.776 1156.11 -595.795 1152.98 -595.058C1152.41 -595.69 1151.77 -596.237 1151.07 -596.683C1151.13 -596.032 1151.14 -595.376 1151.08 -594.725L1149.21 -594.718C1147.36 -596.815 1144.75 -601.954 1143.87 -602.531C1141.24 -610.97 1139.39 -598.345 1136.55 -601.055C1123.09 -596.111 1122.75 -608.583 1114.72 -616.568C1111.45 -612.386 1103.98 -618.596 1100.78 -615.285C1094.93 -609.463 1091.58 -609.704 1084.39 -611.6C1077.35 -605.665 1070.49 -617.134 1063.58 -612.287C1061.71 -613.042 1059.78 -611.548 1057.82 -610.163C1055.27 -611.327 1052.6 -612.122 1049.87 -612.528C1048.48 -616.149 1048.71 -616.331 1047.15 -612.518L1046.33 -612.515C1042.42 -621.204 1040.91 -613.584 1034.55 -613.778C1029.74 -608.431 1022.52 -617.579 1017.94 -614.625C1014.45 -617.477 1011.59 -621.057 1008.67 -610.966C1005.39 -612.042 1002.44 -610.617 998.314 -607.919C994.565 -608.916 991.04 -610.755 987.96 -613.321C979.579 -608.505 971.549 -615.655 963.483 -614.394C962.115 -612.14 960.201 -610.357 957.961 -609.246C955.72 -608.135 953.242 -607.742 950.809 -608.111L950.534 -602.49C947.237 -607.011 947.282 -594.356 942.385 -596.913C941.05 -603.326 934.485 -595.108 933.623 -597.498C929.499 -594.981 925.213 -591.63 921.385 -597.962C915.53 -592.973 915.803 -599.247 911.53 -601.552C903.546 -604.787 889.532 -597.122 881.499 -595.788C874.357 -593.115 867.051 -590.297 860.441 -594.661C851.497 -591.22 842.231 -595.321 833.565 -596.74C824.899 -598.159 816.338 -606.831 807.708 -598.243C799.845 -595.169 793.984 -601.276 788.235 -603.467C786.842 -605.329 785.224 -606.97 783.427 -608.345C783.918 -599.463 777.669 -613.147 776.189 -614.084C773.567 -622.523 771.71 -609.898 768.879 -612.607C755.413 -607.664 755.073 -620.136 747.039 -628.121C743.773 -623.939 736.304 -630.149 733.101 -626.838C727.249 -621.015 723.902 -621.257 716.71 -623.153C709.678 -617.217 702.813 -628.687 695.908 -623.84C691.933 -625.457 687.635 -616.558 683.352 -621.365C680.41 -627.773 681.488 -628.828 679.048 -623.308C674.845 -633.482 673.463 -625.318 666.869 -625.476C662.065 -620.129 654.848 -629.277 650.265 -626.323C646.777 -629.175 643.91 -632.755 640.994 -622.664C636.527 -624.098 632.897 -621.039 625.925 -616.482C619.956 -615.916 613.144 -621.73 606.797 -617.03C600.806 -622.411 599.861 -611.529 595.121 -615.936C591.396 -620.999 586.608 -611.337 583.254 -613.428C579.622 -619.942 579.607 -605.909 574.643 -608.611C573.308 -615.024 566.743 -606.805 565.882 -609.196C561.757 -606.679 557.471 -603.327 553.643 -609.659C547.789 -604.671 548.061 -610.945 543.788 -613.25C535.8 -616.485 521.79 -608.82 513.76 -607.486C510.75 -606.269 507.68 -605.289 504.55 -604.552C503.98 -605.184 503.34 -605.73 502.64 -606.177C502.7 -605.526 502.71 -604.87 502.65 -604.219L500.78 -604.212C498.93 -606.308 496.32 -611.448 495.44 -612.025C492.81 -620.464 490.96 -607.839 488.12 -610.548C474.66 -605.605 474.32 -618.077 466.29 -626.062C463.02 -621.88 455.55 -628.09 452.35 -624.779C446.5 -618.956 443.15 -619.198 435.96 -621.094C428.92 -615.158 422.06 -626.628 415.15 -621.781C413.28 -622.535 411.35 -621.042 409.39 -619.657C406.84 -620.82 404.17 -621.615 401.44 -622.022C400.05 -625.643 400.28 -625.825 398.72 -622.012L398.13 -622.01C394.22 -630.734 392.71 -623.078 386.34 -623.273C381.54 -617.925 374.32 -627.073 369.74 -624.12C366.25 -626.972 363.39 -630.551 360.47 -620.46C357.19 -621.536 354.24 -620.112 350.11 -617.414C346.36 -618.411 342.84 -620.25 339.76 -622.816C331.38 -617.999 323.35 -625.15 315.28 -623.888C313.91 -621.634 312 -619.851 309.76 -618.74C307.52 -617.63 305.04 -617.237 302.61 -617.606L302.33 -611.984C299.04 -616.505 299.08 -603.851 294.19 -606.407C292.85 -612.821 286.29 -604.602 285.42 -606.992C281.3 -604.476 277.01 -601.124 273.18 -607.456C267.33 -602.467 267.6 -608.741 263.33 -611.047C255.35 -614.281 241.33 -606.617 233.3 -605.282C226.16 -602.61 218.85 -599.792 212.24 -604.155C203.3 -600.715 194.03 -604.815 185.37 -606.234C176.7 -607.654 168.14 -616.325 159.51 -607.737C150.5 -604.079 144.1 -612.758 137.51 -613.641C130.94 -615.684 124.36 -620.846 115.73 -619.473C107.18 -616.506 99.6902 -621.084 91.1302 -618.841C80.2602 -612.783 69.5702 -611.874 59.2102 -620.249C50.8202 -615.433 42.7902 -622.584 34.7302 -621.322C33.3602 -619.068 31.4502 -617.285 29.2102 -616.174C26.9702 -615.064 24.4902 -614.671 22.0502 -615.04L15.0302 -415.113L0.0901061 -7.16997L-7.03992 191.633C-6.12992 191.762 -5.23988 191.99 -4.37988 192.312C1.09012 188.993 6.48014 200.649 12.0201 191.202C16.9801 192.562 20.4702 186.784 25.2902 186.186C28.6002 195.276 32.3702 183.297 36.2802 185.095C43.1202 181.445 44.7402 186.117 49.9102 180.224C54.8402 173.607 61.5302 174.888 66.0602 175.706C67.8502 172.484 69.1902 168.983 70.0302 165.321C70.0902 165.494 70.2101 165.635 70.3601 165.719C74.1201 152.072 85.2901 158.704 99.0101 158.981C109.27 165.688 119.49 161.192 130 157.238C138.27 156.41 147.23 158.191 155.56 158.198C160.38 165.432 164.67 145.293 168.69 160.362C176.05 153.773 176.29 172.772 184.33 164.295C189.08 163.226 192.82 173.402 197.65 166.64C202.58 167.058 208.15 165.66 213.07 167.237C220.97 174.28 229.48 167.795 237.49 168.346C248.23 171.934 259.08 159.82 269.48 171.386C276.77 172.593 284.21 179.999 290.17 176.57C294.83 184.784 296.62 182.167 302.6 184.212C308 190.72 315.27 187.43 321.55 189.764C328.11 190.865 337.41 194.059 343.6 190.084C349.74 193.253 351.28 182.805 358.25 188.219C370.81 185.672 380.38 200.758 388.75 185.172C390.17 186.182 391.82 190.455 394.45 180.438C398.56 185.318 406.85 172.09 411.24 180.994C422.2 180.048 430.91 174.795 441.48 177.259C452.24 178.309 462.28 177.185 473.17 177.146C483.71 187.406 495.13 181.164 505.98 178.587C509.13 180.241 512.57 181.094 516.05 181.081C519.53 181.069 522.96 180.192 526.09 178.515C524.24 174.098 532.65 177.077 535.93 176.667C542.064 177.007 556.328 174.962 570.574 177.231L572.31 176.319C575.938 181.636 577.933 179.924 583.319 181.573C588.723 188.08 595.994 184.791 602.268 187.125C608.834 188.226 618.129 191.42 624.316 187.445C630.462 190.614 631.999 180.165 638.974 185.579C650.677 183.217 659.745 196.093 667.712 185.476C669.734 191.089 671.717 195.361 673.521 195.101C676.834 204.19 680.597 192.211 684.507 194.01C691.351 190.359 692.975 195.031 698.137 189.138C703.067 182.521 709.765 183.802 714.295 184.62C716.066 181.403 717.402 177.917 718.26 174.272C718.329 174.431 718.445 174.558 718.59 174.633L718.588 174.307C719.769 174.408 720.943 174.598 722.101 174.874C732.865 175.924 742.9 174.8 753.792 174.761C764.327 185.021 775.754 178.779 786.604 176.202C789.748 177.856 793.187 178.709 796.668 178.696C800.149 178.684 803.582 177.807 806.714 176.13C804.861 171.713 813.27 174.692 816.55 174.282C818.78 174.274 822.127 174.262 826.161 174.03C827.643 175.583 829.45 176.193 831.934 173.828L835.478 173.815C838.962 175.724 842.065 181.043 845.884 175.591C850.806 176.008 856.378 174.61 861.305 176.188C869.204 183.23 877.711 176.745 885.717 177.297C896.458 180.884 907.307 168.771 917.715 180.337C925.002 181.543 932.443 188.95 938.402 185.52C943.024 193.735 944.82 191.19 950.863 193.163C956.267 199.67 963.538 196.38 969.813 198.715C976.378 199.815 985.674 203.009 991.86 199.035C998.006 202.203 999.544 191.755 1006.52 197.169C1019.07 194.622 1028.64 209.708 1037.02 194.122C1038.43 195.133 1040.09 199.405 1042.71 189.388C1046.83 194.269 1055.11 181.04 1059.51 189.944C1070.46 188.999 1079.17 183.746 1089.74 186.21C1100.51 187.259 1110.54 186.135 1121.43 186.096C1131.97 196.356 1143.4 190.115 1154.25 187.538C1157.39 189.192 1160.83 190.044 1164.31 190.032C1167.79 190.019 1171.22 189.142 1174.36 187.465C1172.5 183.048 1180.91 186.028 1184.19 185.617C1190.33 185.958 1204.59 183.912 1218.84 186.182L1220.57 185.269C1224.2 190.586 1226.2 188.875 1231.58 190.523C1236.99 197.031 1244.26 193.741 1250.53 196.076C1257.1 197.176 1266.39 200.37 1272.58 196.395C1278.73 199.564 1280.26 189.116 1287.24 194.53C1299.79 191.983 1309.36 207.069 1317.74 191.483C1319.15 192.493 1320.81 196.766 1323.43 186.749C1327.55 191.811 1335.83 178.437 1340.23 187.523C1351.18 186.577 1359.89 181.324 1370.46 183.788C1381.23 184.837 1391.26 183.714 1402.15 183.674C1412.69 193.935 1424.12 187.693 1434.97 185.116C1438.11 186.77 1441.55 187.623 1445.03 187.61C1448.51 187.598 1451.94 186.721 1455.08 185.044C1453.22 180.627 1461.63 183.606 1464.91 183.195C1471.05 183.536 1485.31 181.491 1499.56 183.76C1516.85 174.162 1520.43 177.775 1534.24 184.977L1539.42 184.959L1546.65 -13.9538L1559.14 -361.914L1566.27 -560.753C1565.27 -558.655 1563.86 -556.828 1562.14 -555.402C1560.42 -553.975 1558.44 -552.984 1556.34 -552.499C1554.24 -552.014 1552.06 -552.046 1549.97 -552.594C1547.88 -553.142 1545.93 -554.192 1544.24 -555.67C1523.08 -556.645 1519.48 -562.217 1512.78 -557.007C1506.45 -564.599 1512.77 -559.147 1504.76 -560.278C1503.2 -564.406 1488.85 -568.742 1484.08 -563.359C1479.41 -575.38 1482.33 -567.921 1475.27 -568.44C1471.37 -568.643 1470.31 -561.823 1463.75 -571.372C1458.67 -571.443 1453.67 -572.659 1449.04 -574.945C1449.56 -574.947 1449.27 -573.495 1449 -583.683C1443.13 -583.662 1435.21 -596.796 1431.76 -598.669C1432.25 -589.787 1426 -603.471 1424.52 -604.409C1421.9 -612.848 1420.04 -600.223 1417.21 -602.932C1403.74 -598.134 1403.4 -610.606 1395.47 -618.627Z" fill="#1565E5"/>
</g>
</svg>
