<svg width="25" height="28" viewBox="0 0 25 28" fill="none" xmlns="http://www.w3.org/2000/svg">
<path d="M12.7857 0.655518C9.64099 0.655518 6.62508 1.77462 4.40143 3.76664C2.17779 5.75865 0.928558 8.46041 0.928558 11.2775C0.928558 18.4474 11.3777 26.5467 11.8223 26.8919C12.0908 27.0976 12.4324 27.2107 12.7857 27.2107C13.139 27.2107 13.4806 27.0976 13.7491 26.8919C14.2678 26.5467 24.6428 18.4474 24.6428 11.2775C24.6428 8.46041 23.3936 5.75865 21.17 3.76664C18.9463 1.77462 15.9304 0.655518 12.7857 0.655518V0.655518ZM12.7857 24.0904C9.62874 21.4349 3.89284 15.7122 3.89284 11.2775C3.89284 9.16469 4.82977 7.13838 6.4975 5.64436C8.16524 4.15035 10.4272 3.31102 12.7857 3.31102C15.1442 3.31102 17.4062 4.15035 19.0739 5.64436C20.7416 7.13838 21.6786 9.16469 21.6786 11.2775C21.6786 15.7122 15.9427 21.4481 12.7857 24.0904ZM12.7857 5.96653C11.6131 5.96653 10.4669 6.27802 9.49196 6.8616C8.51701 7.44518 7.75713 8.27464 7.30841 9.24511C6.85969 10.2156 6.74229 11.2834 6.97104 12.3137C7.1998 13.3439 7.76444 14.2902 8.59357 15.033C9.42269 15.7758 10.4791 16.2816 11.6291 16.4865C12.7791 16.6914 13.9712 16.5863 15.0545 16.1843C16.1378 15.7823 17.0637 15.1016 17.7151 14.2282C18.3666 13.3548 18.7143 12.328 18.7143 11.2775C18.7143 9.86897 18.0897 8.5181 16.9778 7.52209C15.866 6.52608 14.3581 5.96653 12.7857 5.96653ZM12.7857 13.933C12.1994 13.933 11.6263 13.7773 11.1388 13.4855C10.6514 13.1937 10.2714 12.779 10.0471 12.2938C9.8227 11.8085 9.76399 11.2746 9.87837 10.7595C9.99275 10.2444 10.2751 9.7712 10.6896 9.39982C11.1042 9.02844 11.6324 8.77552 12.2074 8.67306C12.7824 8.5706 13.3784 8.62319 13.9201 8.82417C14.4617 9.02516 14.9247 9.36553 15.2504 9.80222C15.5761 10.2389 15.75 10.7523 15.75 11.2775C15.75 11.9818 15.4377 12.6573 14.8818 13.1553C14.3259 13.6533 13.5719 13.933 12.7857 13.933Z" fill="#FFFE00"/>
</svg>
