<svg width="110" height="115" viewBox="0 0 110 115" fill="none" xmlns="http://www.w3.org/2000/svg">
<path d="M63.8053 83.7292C55.5186 87.102 47.4646 92.452 38.5673 91.8123C31.6182 91.2017 25.5995 86.8403 20.6275 81.9846C10.1651 72.0779 3.16255 59.0718 0.652252 44.8836C-0.81243 37.0161 0.203605 28.8878 3.55985 21.6229C7.63532 14.2545 14.0208 8.43096 21.7323 5.04954C32.6872 -0.309903 45.2317 -1.44844 56.9724 1.85118C62.7813 3.55995 68.125 6.56862 72.5984 10.6491C77.0719 14.7297 80.5578 19.775 82.7919 25.4027C87.793 38.894 80.4949 54.3043 85.2634 67.4466C91.0786 83.4965 77.5292 81.5775 75.1449 81.5194C71.2543 81.4797 67.3963 82.2315 63.8053 83.7292V83.7292Z" fill="#40DCFF"/>
<path d="M86.4973 106.368C78.2107 109.741 70.1566 115.091 61.2594 114.452C54.3102 113.841 48.2915 109.48 43.3195 104.624C32.8571 94.7171 25.8546 81.711 23.3443 67.5229C21.8796 59.6553 22.8956 51.527 26.2519 44.2621C30.3273 36.8938 36.7128 31.0702 44.4244 27.6888C55.3792 22.3293 67.9238 21.1908 79.6645 24.4904C85.4733 26.1992 90.817 29.2078 95.2904 33.2884C99.7639 37.3689 103.25 42.4142 105.484 48.042C110.485 61.5332 103.187 76.9435 107.955 90.0858C113.771 106.136 100.221 104.217 97.837 104.159C93.9464 104.119 90.0883 104.871 86.4973 106.368V106.368Z" fill="#FFFE00"/>
</svg>
