<svg width="27" height="31" viewBox="0 0 27 31" fill="none" xmlns="http://www.w3.org/2000/svg">
<path d="M13.0526 2.12688e-07C9.59086 1.5628e-07 6.27087 1.30642 3.82303 3.63186C1.37518 5.95731 -1.48465e-07 9.11129 -2.02053e-07 12.4C-3.38439e-07 20.7699 11.5026 30.2249 11.9921 30.6279C12.2876 30.868 12.6637 31 13.0526 31C13.4415 31 13.8176 30.868 14.1132 30.6279C14.6842 30.2249 26.1053 20.7699 26.1053 12.4C26.1053 9.11129 24.7301 5.95731 22.2822 3.63186C19.8344 1.30642 16.5144 2.69097e-07 13.0526 2.12688e-07ZM13.0526 27.3574C9.57737 24.2574 3.26316 17.5769 3.26316 12.4C3.26316 9.93345 4.29455 7.56797 6.13043 5.82389C7.96631 4.07981 10.4563 3.09999 13.0526 3.09999C15.649 3.09999 18.139 4.07981 19.9748 5.82389C21.8107 7.56797 22.8421 9.93345 22.8421 12.4C22.8421 17.5769 16.5279 24.2729 13.0526 27.3574ZM13.0526 6.19998C11.7618 6.19998 10.5001 6.5636 9.42681 7.24486C8.35356 7.92613 7.51706 8.89443 7.0231 10.0273C6.52914 11.1602 6.3999 12.4068 6.65172 13.6095C6.90354 14.8122 7.52511 15.9169 8.43783 16.784C9.35055 17.6511 10.5134 18.2416 11.7794 18.4808C13.0454 18.72 14.3576 18.5973 15.5501 18.128C16.7427 17.6587 17.7619 16.8641 18.4791 15.8445C19.1962 14.8249 19.5789 13.6262 19.5789 12.4C19.5789 10.7556 18.8914 9.17863 17.6674 8.01591C16.4435 6.85319 14.7835 6.19998 13.0526 6.19998ZM13.0526 15.4999C12.4072 15.4999 11.7763 15.3181 11.2397 14.9775C10.7031 14.6369 10.2848 14.1527 10.0379 13.5863C9.79088 13.0198 9.72626 12.3965 9.85217 11.7952C9.97808 11.1938 10.2889 10.6415 10.7452 10.2079C11.2016 9.7744 11.783 9.47915 12.416 9.35953C13.049 9.23992 13.7051 9.30131 14.3014 9.53594C14.8977 9.77057 15.4073 10.1679 15.7658 10.6777C16.1244 11.1875 16.3158 11.7868 16.3158 12.4C16.3158 13.2221 15.972 14.0106 15.36 14.592C14.7481 15.1733 13.9181 15.4999 13.0526 15.4999Z" fill="#40DCFF"/>
</svg>
