<svg width="36" height="36" viewBox="0 0 36 36" fill="none" xmlns="http://www.w3.org/2000/svg">
<path d="M32.565 30.435L27 24.915C29.1602 22.2216 30.2063 18.8029 29.9232 15.3619C29.6402 11.9209 28.0495 8.71915 25.4783 6.41495C22.9071 4.11074 19.5507 2.87924 16.0994 2.97368C12.6481 3.06812 9.36411 4.48132 6.92274 6.92269C4.48137 9.36406 3.06817 12.648 2.97373 16.0994C2.87929 19.5507 4.11078 22.907 6.41499 25.4783C8.7192 28.0495 11.921 29.6402 15.362 29.9232C18.803 30.2062 22.2216 29.1601 24.915 27L30.435 32.52C30.5745 32.6606 30.7404 32.7722 30.9232 32.8483C31.1059 32.9245 31.302 32.9637 31.5 32.9637C31.698 32.9637 31.8941 32.9245 32.0769 32.8483C32.2597 32.7722 32.4256 32.6606 32.565 32.52C32.8354 32.2403 32.9865 31.8665 32.9865 31.4775C32.9865 31.0885 32.8354 30.7147 32.565 30.435ZM16.5 27C14.4233 27 12.3933 26.3842 10.6665 25.2304C8.93982 24.0767 7.59401 22.4368 6.79929 20.5182C6.00457 18.5995 5.79663 16.4883 6.20178 14.4515C6.60692 12.4147 7.60695 10.5438 9.0754 9.07536C10.5439 7.60691 12.4148 6.60688 14.4516 6.20173C16.4884 5.79659 18.5996 6.00452 20.5182 6.79924C22.4368 7.59396 24.0767 8.93978 25.2305 10.6665C26.3842 12.3932 27 14.4233 27 16.5C27 19.2848 25.8938 21.9555 23.9246 23.9246C21.9555 25.8937 19.2848 27 16.5 27Z" fill="#F0F0F0"/>
</svg>
