<svg width="285" height="86" viewBox="0 0 285 86" fill="none" xmlns="http://www.w3.org/2000/svg">
<path fill-rule="evenodd" clip-rule="evenodd" d="M114.359 76.9833C114.487 77.2335 114.672 77.4067 115.071 77.0314C114.836 76.81 114.601 76.6079 114.359 76.9833Z" fill="#2B64E2"/>
<path fill-rule="evenodd" clip-rule="evenodd" d="M114.003 76.685C113.874 76.685 110.44 77.1758 113.967 77.2816C114.58 77.2913 114.266 76.5984 114.003 76.685Z" fill="#2B64E2"/>
<path fill-rule="evenodd" clip-rule="evenodd" d="M112.05 77.2334C112.335 76.9639 112.414 77.0987 112.136 76.8677C111.858 76.6367 111.673 76.8677 111.48 76.9928C111.687 77.1083 111.83 77.4451 112.05 77.2334Z" fill="#2B64E2"/>
<path fill-rule="evenodd" clip-rule="evenodd" d="M115.086 77.041C115.15 77.0987 115.25 77.1661 115.257 77.041C115.264 76.9159 115.235 76.8966 115.086 77.041Z" fill="#2B64E2"/>
<path fill-rule="evenodd" clip-rule="evenodd" d="M73.7666 5.63462C73.7666 5.63462 73.9376 5.548 73.9376 5.49026C74.032 4.68268 74.2772 3.92092 74.6501 3.27686C73.7523 3.71954 71.9425 3.27686 72.0779 4.03711C72.2133 4.79737 72.3985 4.46055 73.7666 5.63462Z" fill="#2B64E2"/>
<path fill-rule="evenodd" clip-rule="evenodd" d="M69.3632 6.5584C69.9118 6.32744 69.8976 6.5584 70.546 7.27054C70.9307 7.68435 71.5221 7.03958 71.3297 6.94334C70.8595 6.70275 71.1872 6.24083 71.2514 5.69229C71.2514 5.44207 71.0661 5.1245 70.945 5.26885C70.4961 5.81739 70.0686 5.68266 69.0497 5.68266C68.7718 5.68266 68.9214 6.73162 69.3632 6.5584Z" fill="#2B64E2"/>
<path fill-rule="evenodd" clip-rule="evenodd" d="M109.678 4.46043C109.072 4.77801 110.533 5.73074 111.331 4.38345C111.378 4.29739 111.411 4.19858 111.428 4.09367C111.445 3.98876 111.445 3.8802 111.428 3.77531C111.411 3.67042 111.378 3.57164 111.33 3.48563C111.283 3.39962 111.222 3.32839 111.153 3.27674C110.362 2.92067 109.122 3.39222 109.728 3.65206C109.815 3.67241 109.894 3.73373 109.952 3.82524C110.009 3.91675 110.041 4.03261 110.041 4.15248C110.034 4.54704 109.806 4.39307 109.678 4.46043Z" fill="#2B64E2"/>
<path fill-rule="evenodd" clip-rule="evenodd" d="M86.0362 4.8069C85.9507 4.08514 85.9151 3.10354 85.5659 3.36338C85.4162 3.54634 85.3065 3.78124 85.2487 4.04253C85.1909 4.30382 85.1873 4.5815 85.2382 4.8454C85.4448 5.50942 86.0932 5.37469 86.0362 4.8069Z" fill="#2B64E2"/>
<path fill-rule="evenodd" clip-rule="evenodd" d="M77.8637 4.10437C78.6617 4.42194 79.2032 2.90143 77.8637 3.54621C77.6998 3.60395 77.6642 4.037 77.8637 4.10437Z" fill="#2B64E2"/>
<path fill-rule="evenodd" clip-rule="evenodd" d="M90.1474 8.42534C90.1474 8.42534 90.2044 8.42534 90.2401 8.47346C90.3968 8.54083 90.2971 8.21363 90.1546 8.35798C90.1546 8.15589 90.4752 7.15504 89.7484 7.28977C89.7136 7.31432 89.6838 7.34993 89.6615 7.39351C89.6391 7.4371 89.6249 7.48736 89.6202 7.53998C89.6772 7.99229 90.1118 7.9153 90.1474 8.42534Z" fill="#2B64E2"/>
<path fill-rule="evenodd" clip-rule="evenodd" d="M94.1946 7.51111C94.1252 7.4486 94.042 7.42022 93.959 7.43073C93.8759 7.44125 93.7981 7.49001 93.7386 7.56885C93.6973 7.65416 93.6796 7.75639 93.6887 7.85756C94.3371 8.56007 94.4938 7.69396 94.1946 7.51111Z" fill="#2B64E2"/>
<path fill-rule="evenodd" clip-rule="evenodd" d="M98.5766 8.12697C98.6336 7.57843 97.9781 7.51107 98.0494 8.12697C98.1206 8.74288 98.4983 8.87761 98.5766 8.12697Z" fill="#2B64E2"/>
<path fill-rule="evenodd" clip-rule="evenodd" d="M153.362 1.58313C153.412 1.72748 153.405 1.58313 153.362 1.58313V1.58313Z" fill="#2B64E2"/>
<path fill-rule="evenodd" clip-rule="evenodd" d="M123.209 77.1468C123.486 77.3201 123.579 77.628 123.836 77.3104C123.95 77.1661 123.921 77.3104 123.779 76.9351C123.636 76.5598 123.38 76.9832 123.209 77.1468Z" fill="#2B64E2"/>
<path fill-rule="evenodd" clip-rule="evenodd" d="M142.817 78.2247C142.382 78.2247 136.162 77.9457 135.735 78.2247C136.07 78.7252 136.561 78.2247 139.376 78.5231C142.504 78.908 143.18 78.244 142.817 78.2247Z" fill="#2B64E2"/>
<path fill-rule="evenodd" clip-rule="evenodd" d="M101.655 23.0241C101.655 23.0722 101.612 23.0819 101.712 23.1011C102.951 23.3898 102.039 22.0233 101.655 23.0241Z" fill="#2B64E2"/>
<path d="M284.01 18.2798C285.279 22.1292 285.236 26.941 284.402 30.9155C283.284 36.2758 285.72 36.8724 284.153 42.3386C283.953 43.1855 283.875 44.0323 284.06 47.1985C283.833 50.757 283.441 54.2926 282.885 57.7843C282.478 60.017 283.034 60.6906 282.885 63.443C282.792 65.1944 283.341 67.8409 282.578 70.0062C282.379 70.574 282.364 71.2669 282.044 71.7577C281.869 72.3519 281.747 72.9722 281.68 73.6054C281.367 75.8862 280.405 75.1836 279.692 78.4171C278.096 85.3653 274.676 84.1046 273.045 84.913C272.929 84.9771 272.806 85.0129 272.681 85.0189C271.605 84.9804 270.7 85.808 269.397 85.6251C267.9 85.4134 267.572 85.5674 266.974 85.067C266.786 84.9514 266.582 84.8923 266.375 84.8938C265.589 84.8408 264.811 84.6532 264.06 84.3356C262.905 83.7293 262.656 84.6147 261.131 84.6917C260.134 84.7398 260.953 85.0766 258.816 85.0766C256.436 85.0381 254.868 86.1159 251.804 85.1536C250.882 84.7672 249.886 84.8704 249.018 85.4423C248.401 85.5429 247.776 85.4405 247.194 85.144C245.178 83.7293 245.043 86.7703 241.922 85.808C239.798 85.1247 239.421 84.4126 237.803 84.7879C235.11 85.423 237.283 83.0172 238.901 83.8255C239.177 83.9417 239.47 83.9665 239.756 83.8979C240.041 83.8292 240.31 83.6691 240.539 83.431C240.627 83.2082 240.652 82.9504 240.61 82.7048C240.568 82.4591 240.462 82.2421 240.311 82.0933C240.233 82.0067 240.148 82.0067 240.069 82.0067C239.406 81.6603 239.528 80.5151 239.806 80.39C240.461 80.0916 240.96 80.0243 240.767 79.6008C240.696 79.4372 240.611 79.2736 240.475 79.341C238.274 80.5247 235.694 78.4556 237.889 78.4556C238.395 78.4653 238.473 78.292 239.371 77.6088C240.026 77.1083 240.034 76.0209 238.551 76.5694C237.946 76.7251 237.329 76.78 236.713 76.733C235.673 75.992 234.725 76.5887 234.576 75.992C234.462 75.5493 234.832 75.6071 234.932 75.1163C234.896 75.0682 234.818 75.0682 234.818 75.0682C234.077 75.8284 232.866 74.8853 232.21 75.5974C231.904 75.9246 231.804 76.7041 231.412 76.7619C231.02 76.8196 230.664 76.7138 230.308 76.8196C229.681 77.0121 229.082 76.5887 228.469 76.7138C228.386 76.724 228.302 76.6932 228.234 76.6272C227.714 76.1075 227.094 76.4636 226.553 76.1075C226.239 75.9054 225.341 76.8485 224.907 76.579C224.472 76.3096 224.387 77.1661 224.023 77.0025C222.755 76.4251 222.135 76.6464 221.102 76.3577C220.475 76.223 220.461 76.7715 219.677 76.223C219.071 75.7995 219.463 76.5021 218.116 76.0979C216.47 75.5975 215.081 77.3104 214.689 76.4828C214.477 76.3657 214.247 76.3194 214.019 76.3479C213.791 76.3763 213.571 76.4788 213.378 76.6464C213.107 76.9447 213.114 77.0506 210.777 77.1565V71.9501C210.414 73.7305 209.58 73.3455 208.868 76.3481C207.272 83.2962 203.852 82.0356 202.22 82.8439C202.105 82.9082 201.981 82.9441 201.857 82.9498C200.781 82.9113 199.876 83.7389 198.572 83.5561C197.076 83.3444 196.748 83.4984 196.149 82.9979C195.961 82.8823 195.757 82.8232 195.551 82.8247C194.765 82.7717 193.986 82.5841 193.235 82.2665C192.081 81.6603 191.831 82.5456 190.307 82.6226C189.309 82.6707 190.129 83.0076 187.991 83.0076C185.611 82.9691 184.044 84.0469 180.98 83.0845C180.058 82.6981 179.061 82.8014 178.194 83.3732C177.577 83.4738 176.951 83.3715 176.37 83.0749C174.353 81.6603 174.218 84.7013 171.097 83.7389C169.85 83.3829 169.202 82.9691 168.553 82.7766C168.625 83.0075 168.66 83.2866 168.511 83.2866C164.207 84.3837 165.988 83.3348 164.064 83.1423C162.141 82.9498 163.58 79.9858 162.397 80.2552C162.048 80.313 161.621 80.6787 161.193 80.313C160.958 80.1205 160.146 80.0628 160.245 80.8423C160.26 80.9674 160.324 81.0828 160.324 81.208C160.338 81.6025 160.117 81.8142 159.853 80.9481C159.718 80.496 159.597 80.5054 158.736 80.5727L158.735 80.5728C158.044 80.6305 158.849 81.6699 158.507 81.7565C158.088 81.7447 157.678 81.9169 157.338 82.2473C157.089 82.5649 154.374 81.9008 154.951 81.1502C155.072 80.9866 155.258 80.7653 155.329 80.6594C155.4 80.5536 155.357 80.1686 155.265 80.1686C154.36 79.8318 154.41 79.774 153.961 80.1012C153.12 80.7075 154.78 81.1213 154.068 81.7565C152.885 82.8439 153.277 82.7381 151.282 82.9498C151.061 82.9787 150.94 82.8151 150.755 82.5071C150.569 82.1992 150.698 81.8527 150.698 81.5448C150.648 80.4285 151.146 81.5448 152.229 80.5824C152.593 80.2456 152.244 79.1485 149.835 79.8222C148.966 80.0628 150.056 81.3619 147.698 80.9385C147.035 80.8134 147.491 80.0628 147.491 79.851C147.457 79.5978 147.479 79.3365 147.555 79.1004C146.779 79.033 147.555 78.523 148.204 78.523H148.275C148.378 78.3643 148.453 78.177 148.496 77.9745C148.71 77.0987 148.132 77.1468 148.795 76.0498C148.844 75.9415 148.882 75.825 148.909 75.7033C148.931 75.7514 148.973 75.838 148.973 75.838C148.788 76.7234 149.522 76.2903 149.686 77.4548C149.771 78.0899 150.676 78.0418 151.638 78.1765C151.735 78.1953 151.873 77.9856 151.933 77.8947L151.937 77.8878C151.994 77.8012 151.93 77.7435 152.051 77.5414C152.172 77.3393 152.422 77.3393 152.343 77.6954C152.194 78.3401 152.935 78.5037 153.384 78.0514C153.598 77.7916 153.241 76.3673 152.636 76.1267C151.253 75.5878 151.403 75.5686 151.595 74.8661C151.627 74.7386 151.647 74.6059 151.652 74.4715C151.203 74.4411 150.755 74.3704 150.313 74.2598C149.686 74.1251 149.672 74.6736 148.888 74.1251C148.282 73.7016 148.674 74.4041 147.327 73.9999C145.681 73.4995 144.292 75.2125 143.9 74.3849C143.688 74.2677 143.458 74.2214 143.23 74.2499C143.002 74.2784 142.782 74.3808 142.589 74.5485L142.532 74.6159H142.496H142.439H142.397H142.304H142.247H142.083H142.048H141.934C141.577 74.664 141.057 74.7313 140.245 74.7313L138.293 74.7987C138.149 74.9342 138.048 75.1364 138.008 75.3665C137.794 76.7234 138.293 77.0506 137.58 77.5703C136.476 78.3979 136.369 76.146 135.35 77.7146C134.887 78.3979 134.709 77.0987 134.174 77.9841C133.839 78.5326 133.341 78.0418 133.255 79.3025C133.184 80.236 132.507 79.6489 131.317 79.1197C131.249 79.0362 131.199 78.9295 131.173 78.8108C131.147 78.6922 131.145 78.5661 131.167 78.446C131.303 77.5318 130.854 77.1276 130.505 76.5213C130.156 75.915 130.754 75.8284 131.025 74.6928C128.474 74.6447 124.277 74.2598 123.657 74.5292C121.506 75.4435 109.286 75.1451 109.143 75.1451C108.602 75.1836 108.502 74.7891 108.281 74.5774C108.224 74.7137 108.193 74.8679 108.193 75.0248C108.193 75.1818 108.224 75.336 108.281 75.4723C108.584 75.6562 108.906 75.7732 109.236 75.8188C109.536 75.796 109.836 75.8895 110.098 76.0882C110.896 76.3 110.803 76.2711 110.853 76.4347C110.903 76.5983 110.889 76.7042 110.796 76.7042L110.347 76.7908C110.688 76.8091 111.027 76.8703 111.359 76.9736C110.903 77.1971 110.419 77.2953 109.934 77.2623C109.917 77.4105 109.922 77.5617 109.949 77.7071C109.976 77.8525 110.024 77.9892 110.091 78.1092C110.148 78.2247 110.483 78.7347 110.433 78.8406C110.283 79.2255 109.564 78.5422 109.008 78.8406C108.019 78.3916 107.051 77.8646 106.108 77.2623C105.289 76.5887 104.761 77.5799 104.384 76.6753C104.127 76.069 103.557 76.1941 103.814 75.2318C103.842 75.1372 103.844 75.0324 103.821 74.9356C103.797 74.8388 103.749 74.7562 103.685 74.7025C103.364 74.6681 103.045 74.6005 102.731 74.5004H102.638C102.581 74.5196 102.51 74.4138 102.438 74.3656C101.562 74.3753 101.598 74.3175 101.655 74.5389C101.897 75.5012 101.997 74.6928 102.431 75.6071C103.101 75.5782 103.329 76.2807 103.03 76.2807C102.873 76.2903 101.819 76.0882 101.918 77.4548C101.94 77.7724 101.64 77.8397 100.999 78.2343C99.9945 78.8502 100.835 79.0715 99.2393 79.3795C96.4675 79.8703 96.1255 81.4197 95.9118 80.3418C95.7479 79.5142 95.7978 79.0523 95.4201 78.8694C94.8572 78.6 94.5081 78.7058 94.3371 78.1092C94.045 77.0698 94.1091 76.6849 93.5106 76.5983C93.3609 76.9062 93.1971 76.733 93.0403 76.5983H92.9904C93.0403 76.6175 93.0332 76.6175 92.9904 76.6657C92.7767 76.9159 92.8479 76.9159 92.2779 76.6657C92.1639 76.9255 92.1639 76.7523 92.1639 76.6657H91.8077C90.86 76.733 90.9669 77.6761 91.0452 77.9167C91.2804 78.6192 91.6865 78.6577 91.7934 79.3314C90.6605 79.7741 91.5369 78.2343 89.2354 78.6577C87.7463 78.9464 87.6964 79.0042 87.7463 79.3891C87.8175 79.9569 87.9102 79.3699 87.5111 80.6017C87.1121 81.8335 86.7274 81.1695 86.2571 81.487C85.2596 82.1607 85.0316 81.1695 84.4117 80.9866C83.635 80.7557 83.8844 79.7356 82.8299 79.6489C82.5012 79.6098 82.175 79.5391 81.8537 79.4372C81.7825 79.4276 81.7825 79.2255 81.7825 79.1197C81.6115 79.7356 81.3906 79.4661 80.6781 80.2167C80.165 80.7364 79.9014 80.2745 79.1461 80.7364C78.7115 80.9962 77.1154 81.5352 76.8376 80.1397C76.8029 79.9016 76.7029 79.6899 76.5575 79.5471C76.4122 79.4043 76.2322 79.341 76.0538 79.3699C75.6837 79.337 75.3124 79.337 74.9423 79.3699C74.5358 79.4486 74.1232 79.4486 73.7167 79.3699L73.2607 79.2736H73.1253H73.0042H72.8688H72.7905L72.7406 79.3217V79.3987C72.7369 79.4435 72.7369 79.4887 72.7406 79.5335C72.7385 79.5848 72.7385 79.6362 72.7406 79.6874V79.7452V79.9858C72.7904 80.2937 72.6622 81.0059 73.2536 81.0636C73.5101 81.0636 73.5101 80.9385 73.7096 81.0636L73.788 81.1213C73.8313 81.1701 73.8662 81.2312 73.8902 81.3002C73.9141 81.3692 73.9266 81.4445 73.9266 81.5207C73.9266 81.5969 73.9141 81.6722 73.8902 81.7412C73.8662 81.8103 73.8313 81.8713 73.788 81.9201C73.5956 82.1511 73.3676 82.0644 73.0755 82.0644C71.6718 82.2762 71.8713 81.0925 71.1018 80.8519C70.5745 80.6883 70.0615 81.3427 69.5342 80.9096H68.0522C67.4038 80.8904 67.0404 82.9787 65.6153 81.6314C65.5191 81.6621 65.4192 81.6655 65.3219 81.6413C65.2247 81.617 65.1322 81.5657 65.0505 81.4906C64.9687 81.4154 64.8994 81.3181 64.847 81.2049C64.7946 81.0916 64.7602 80.9648 64.7461 80.8326C64.6535 80.4669 63.4635 80.4285 63.4065 80.7075C63.1714 81.7854 62.5586 80.7557 62.2024 81.9105C62.1668 82.0741 62.3449 82.228 62.2024 82.3724C62.201 82.3427 62.1942 82.3139 62.1827 82.2885C62.1712 82.2632 62.1552 82.242 62.1363 82.2268C62.1173 82.2116 62.0959 82.2029 62.0739 82.2015C62.0519 82.2 62.03 82.2058 62.01 82.2184C61.6181 82.3724 61.1763 81.8431 60.9056 82.6419C60.9056 82.6515 60.8272 82.6419 60.8272 82.5841C60.8442 82.5635 60.8566 82.5368 60.8628 82.5071C60.927 82.2954 61.0125 82.4494 61.0695 82.0741C60.7916 81.9586 60.6847 81.9586 60.9982 81.3042C61.0742 80.8679 60.9745 80.6017 60.699 80.5054C60.5137 80.8038 60.3213 80.8519 60.1076 80.5728C59.6373 80.7749 59.2525 80.8134 59.395 81.5352C59.4378 81.7469 59.0032 81.9682 59.0032 81.5352C59.0245 80.4862 58.9604 80.9385 58.141 80.8519C57.0366 80.7268 56.9511 80.5439 56.6447 80.9866C56.5093 81.1791 56.6162 81.2561 56.9012 81.7373C57.1363 81.8142 58.5115 81.4967 58.3263 82.459C58.0555 83.8448 58.2693 83.6042 57.1862 83.8448C57.2347 84.4619 56.9402 84.0343 57.1651 84.0095C57.0838 84.0118 57.0029 83.9908 56.9278 83.9478C56.8463 83.901 56.7738 83.8296 56.716 83.7389C55.9892 83.7197 55.7683 83.8063 55.7256 83.2866C55.2482 82.305 55.2909 81.8912 53.8231 83.354C53.2816 83.8929 52.7116 82.8151 52.0561 83.4021C51.7782 83.6523 49.5765 83.431 49.5765 83.0557C49.5979 82.3531 50.0895 82.5456 50.5099 81.3908C50.7735 80.6594 49.7404 80.5728 46.5483 79.8029C45.4795 79.5527 45.7431 79.187 43.7623 79.341C43.3491 80.0531 43.4346 81.6891 43.9404 81.7854C44.824 81.9586 46.0851 83.6331 42.437 82.0741C41.8813 81.9778 41.1901 81.9682 41.3611 81.1117C41.4039 80.9289 41.6176 79.0042 41.297 79.0042H39.0027C37.6845 77.6857 37.9339 77.5703 36.5943 78.1477C36.288 79.3602 37.8911 79.187 37.9339 79.9377C37.941 80.1397 37.3567 80.1879 36.4305 80.3418C36.0243 80.8904 35.5683 80.5247 35.1337 80.5247C34.8202 80.5247 34.6278 79.6971 34.8202 79.5623C35.4187 79.1485 36.6727 78.7251 35.1337 78.0418C34.2573 78.3305 32.1981 77.8301 32.9106 78.6577C33.1529 78.9272 32.6327 79.4372 32.2693 79.3602C31.6345 79.2724 30.9946 79.2724 30.3598 79.3602C29.8183 80.4285 29.4549 78.6674 29.234 78.6C29.0131 78.5326 28.4075 78.7443 28.0156 78.6577C26.8399 78.3979 26.7901 79.7644 25.764 79.2544C24.8591 78.8117 24.7451 79.3217 24.9019 78.292C25.0586 77.2623 24.3461 77.5991 24.3461 78.3401C24.3817 78.523 24.4886 78.6192 24.3817 78.8887C24.2749 79.1581 23.4198 79.1966 22.7073 78.9464C21.7597 78.6192 21.1611 78.9464 20.9331 77.9841C20.9046 77.8878 20.8049 77.8205 20.7336 77.7627C19.8073 77.0217 20.4914 76.0401 18.5961 75.9247C16.3659 75.7899 15.8315 75.9824 15.4396 76.3866C15.0477 76.7908 14.2639 76.81 13.872 77.4548C13.6435 77.8066 13.3355 78.0467 12.9956 78.1381C12.828 78.1652 12.671 78.2629 12.5467 78.4171C12.0337 79.3217 11.307 79.033 10.9436 79.1581C8.62788 79.9762 7.14583 78.3883 5.54978 79.1581C4.63063 79.6008 3.75423 78.754 3.04171 77.9648C2.6712 77.551 2.74957 77.1853 2.54294 75.8284C2.04418 72.4891 1.80904 70.42 0.989645 67.9949C-0.278643 64.2225 -0.235892 59.3818 0.597758 55.3881C1.71642 50.0374 -0.713282 49.4407 0.49088 44.3114C0.690386 43.4645 0.768763 42.6177 0.583508 39.4515C0.810271 35.8931 1.20294 32.3574 1.75917 28.8657C2.1368 26.6427 1.58104 25.9786 1.75917 23.1782C1.8518 21.4267 1.30315 18.7802 2.06555 16.615C2.26506 16.0472 2.27931 15.3543 2.59994 14.8635C2.77495 14.2692 2.89694 13.649 2.96333 13.0158C3.27684 10.735 4.23874 11.4375 4.95126 8.20401C6.54731 1.25584 9.96742 2.51652 11.5991 1.70814C11.7146 1.64407 11.8377 1.60823 11.9625 1.60228C13.0384 1.64078 13.9433 0.813156 15.2472 0.996003C16.7435 1.20772 17.0713 1.05374 17.6698 1.55417C17.8576 1.66978 18.0619 1.72888 18.2683 1.72739C19.0546 1.7804 19.8327 1.96795 20.584 2.28555C21.7383 2.89183 21.9877 2.00647 23.5125 1.92948C24.51 1.88137 23.6906 1.54454 25.8281 1.54454C28.208 1.58304 29.7755 0.505204 32.8394 1.46756C33.7614 1.85397 34.7578 1.75071 35.6253 1.17885C36.2404 1.11042 36.8586 1.24243 37.428 1.56379C39.4444 2.97845 39.5798 -0.0625829 42.7007 0.899768C43.9476 1.25584 44.596 1.66965 45.2444 1.86212C45.1731 1.63115 45.1375 1.35207 45.2871 1.35207C49.5907 0.254993 47.8094 1.30396 49.7332 1.49643C51.6571 1.6889 50.2178 4.65294 51.4005 4.38348C51.7497 4.32574 52.1772 3.96004 52.6047 4.32574C52.8398 4.51821 53.6521 4.57595 53.5524 3.79644C53.5381 3.67134 53.474 3.55586 53.474 3.43075C53.4597 3.03619 53.6806 2.82447 53.9442 3.69059C54.0796 4.14274 54.2007 4.13327 55.062 4.06597L55.0629 4.0659C55.7541 4.00816 54.9418 2.96882 55.2909 2.88221C55.5526 2.8683 55.8095 2.78264 56.0459 2.63044C56.2823 2.47823 56.4933 2.26267 56.6661 1.99685C56.9155 1.67927 59.6302 2.34329 59.053 3.09393C58.9319 3.25753 58.7466 3.47887 58.6754 3.58473C58.6041 3.69059 58.6469 4.07553 58.7395 4.07553C59.6444 4.41235 59.5945 4.47009 60.0434 4.14289C60.8842 3.53661 59.224 3.1228 59.9366 2.48765C61.1193 1.40019 60.7275 1.50605 62.7225 1.29433C62.9434 1.26546 63.0645 1.42906 63.2498 1.73701C63.435 2.04497 63.3068 2.39141 63.3068 2.69936C63.3567 3.81569 62.8579 2.69936 61.7749 3.66172C61.4115 3.99854 61.7606 5.09562 64.1689 4.42197C65.0382 4.18138 63.9481 2.88221 66.3065 3.30565C66.9691 3.43075 66.5131 4.18139 66.5131 4.3931C66.62 5.98098 65.8505 4.85503 65.5085 6.26006C65.2947 7.1358 65.8719 7.08768 65.2092 8.18476C65.1601 8.29297 65.1218 8.40946 65.0952 8.53121C65.0738 8.48309 65.0311 8.39648 65.0311 8.39648C65.2163 7.51112 64.4824 7.94418 64.3186 6.77973C64.2331 6.14458 63.3282 6.1927 62.3663 6.05797C62.2691 6.03922 62.1313 6.24882 62.0716 6.33972L62.067 6.34667C62.01 6.43329 62.0741 6.49103 61.953 6.69312C61.8319 6.89521 61.5825 6.89521 61.6609 6.53914C61.8105 5.89437 61.0695 5.73077 60.6206 6.18307C60.4068 6.44291 60.7631 7.86719 61.3687 8.10778C62.751 8.64669 62.6014 8.66594 62.409 9.36846C62.377 9.49593 62.3578 9.62864 62.352 9.76302C62.8015 9.79342 63.249 9.86415 63.6915 9.97474C64.3186 10.1095 64.3328 9.56093 65.1166 10.1095C65.7222 10.5329 65.3303 9.83038 66.677 10.2346C68.3229 10.735 69.7124 9.02201 70.1042 9.84963C70.3164 9.96677 70.5464 10.0131 70.7746 9.98459C71.0028 9.95611 71.2226 9.85369 71.4153 9.68603L71.4723 9.61867H71.5079H71.5649H71.6005H71.6433H71.7359H71.7929H71.9639L72.1492 9.65716C72.4983 9.60904 73.0256 9.54168 73.8379 9.54168L75.7902 9.47431C75.9336 9.33876 76.035 9.13665 76.0752 8.90653C76.2889 7.54961 75.7902 7.22241 76.5027 6.70274C77.6071 5.87512 77.714 8.12702 78.7329 6.55839C79.196 5.87512 79.3741 7.1743 79.9085 6.28893C80.2434 5.74039 80.7422 6.23119 80.8277 4.97051C80.8989 4.03703 81.5758 4.62407 82.7658 5.15336C82.8336 5.23678 82.8833 5.34352 82.9097 5.46218C82.936 5.58084 82.938 5.70695 82.9154 5.827C82.78 6.74124 83.2289 7.14543 83.578 7.75171C83.9272 8.35799 83.3286 8.4446 83.0579 9.58017C85.6087 9.62829 89.8055 10.0132 90.4254 9.74377C92.5772 8.82954 104.797 9.12787 104.939 9.12787C105.481 9.08937 105.581 9.48394 105.802 9.69565C105.859 9.55929 105.889 9.40507 105.889 9.24816C105.889 9.09125 105.859 8.93704 105.802 8.80067C105.499 8.61678 105.177 8.4998 104.847 8.45422C104.519 8.45422 103.714 8.35799 103.906 7.76133C103.928 7.69396 103.963 7.60735 104.006 7.51112C103.575 7.49242 103.145 7.42157 102.723 7.2994C103.18 7.0759 103.664 6.97775 104.149 7.0107C104.165 6.86255 104.16 6.71133 104.133 6.56591C104.106 6.42049 104.058 6.28379 103.992 6.16383C103.935 6.04835 103.6 5.5383 103.65 5.43244C103.799 5.0475 104.519 5.73077 105.075 5.43244C106.063 5.88142 107.032 6.40841 107.975 7.0107C108.794 7.68434 109.321 6.69312 109.699 7.59773C109.956 8.20401 110.526 8.07891 110.269 9.04126C110.241 9.13577 110.238 9.24064 110.262 9.33744C110.285 9.43424 110.333 9.51678 110.397 9.57055C110.719 9.6049 111.038 9.67246 111.352 9.77264H111.445C111.502 9.7534 111.573 9.85925 111.644 9.90737C112.521 9.89775 112.485 9.95549 112.428 9.73415C112.186 8.7718 112.086 9.58017 111.651 8.66594C110.982 8.69481 110.754 7.99229 111.053 7.99229C111.21 7.98267 112.264 8.18476 112.164 6.81823C112.143 6.50065 112.442 6.43329 113.084 6.03872C114.088 5.42282 113.247 5.20148 114.843 4.89352C117.615 4.40273 117.957 2.85334 118.171 3.93117C118.335 4.7588 118.285 5.22072 118.663 5.40357C119.225 5.67303 119.575 5.56717 119.746 6.16383C120.038 7.20317 119.974 7.58811 120.572 7.67472C120.722 7.36677 120.886 7.53999 121.042 7.67472H121.092C121.042 7.65547 121.05 7.65547 121.092 7.60735C121.306 7.35714 121.235 7.35714 121.805 7.60735C121.919 7.34752 121.919 7.52074 121.919 7.60735H122.275C123.223 7.53999 123.116 6.59689 123.037 6.3563C122.802 5.65378 122.396 5.61529 122.289 4.94164C123.422 4.49896 122.546 6.03872 124.847 5.61529C126.336 5.32658 126.386 5.26884 126.336 4.8839C126.265 4.31611 126.173 4.90315 126.572 3.67134C126.971 2.43953 127.355 3.10355 127.826 2.78598C128.823 2.11233 129.051 3.10355 129.671 3.2864C130.448 3.51736 130.198 4.53745 131.253 4.62407C131.582 4.66321 131.908 4.73396 132.229 4.83578C132.3 4.84541 132.3 5.0475 132.3 5.15336C132.471 4.53745 132.692 4.80691 133.405 4.05628C133.918 3.53661 134.181 3.99854 134.937 3.53661C135.371 3.27677 136.967 2.73786 137.245 4.13327C137.28 4.37144 137.38 4.58313 137.525 4.7259C137.671 4.86867 137.85 4.93198 138.029 4.90315C138.399 4.93604 138.77 4.93604 139.14 4.90315C139.547 4.82445 139.96 4.82445 140.366 4.90315H140.922H141.057H141.178H141.314H141.392L141.442 4.85503V4.77804C141.446 4.73327 141.446 4.68808 141.442 4.64331C141.444 4.59203 141.444 4.54062 141.442 4.48934V4.4316V4.19101C141.392 3.88306 141.52 3.17092 140.929 3.11318C140.672 3.11318 140.672 3.23828 140.473 3.11318L140.394 3.05543C140.351 3.00667 140.316 2.94561 140.292 2.87659C140.268 2.80757 140.256 2.73228 140.256 2.65606C140.256 2.57984 140.268 2.50455 140.292 2.43553C140.316 2.36651 140.351 2.30545 140.394 2.25668C140.587 2.02572 140.815 2.11233 141.107 2.11233C142.511 1.90061 142.311 3.0843 143.081 3.32489C143.608 3.48849 144.121 2.83409 144.648 3.26715H146.13C146.779 3.2864 147.142 1.1981 148.567 2.54539C148.663 2.51463 148.763 2.51126 148.861 2.5355C148.958 2.55975 149.05 2.61107 149.132 2.6862C149.214 2.76133 149.283 2.85863 149.335 2.9719C149.388 3.08518 149.422 3.21195 149.436 3.34414C149.529 3.70983 150.719 3.74833 150.776 3.46924C151.011 2.39141 151.624 3.42113 151.98 2.26631C152.016 2.10271 151.838 1.94873 151.98 1.80438C151.982 1.83408 151.988 1.86287 152 1.88824C152.011 1.91361 152.027 1.93481 152.046 1.94998C152.065 1.96515 152.087 1.97385 152.109 1.97531C152.131 1.97677 152.153 1.97095 152.172 1.95835C152.564 1.80438 153.006 2.33367 153.277 1.53492C153.277 1.5253 153.355 1.53492 153.355 1.59266C153.338 1.61327 153.326 1.63996 153.32 1.66965C153.256 1.88137 153.17 1.72739 153.113 2.10271C153.391 2.21819 153.498 2.21819 153.184 2.87259C153.108 3.30885 153.208 3.5751 153.484 3.67134C153.669 3.37301 153.861 3.32489 154.075 3.60397C154.545 3.40188 154.93 3.36339 154.787 2.64162C154.745 2.42991 155.179 2.20857 155.179 2.64162C155.158 3.69059 155.222 3.23828 156.041 3.32489C157.146 3.45 157.231 3.63284 157.538 3.19016C157.673 2.99769 157.566 2.92071 157.281 2.43953C157.046 2.36254 155.671 2.68012 155.856 1.71777C156.127 0.331981 155.913 0.572569 156.996 0.331981C156.948 -0.285101 157.242 0.142445 157.017 0.167272C157.099 0.165002 157.18 0.186 157.255 0.229013C157.336 0.27574 157.409 0.347194 157.467 0.43784C158.179 0.46671 158.414 0.380099 158.478 0.957509C158.956 1.93911 158.913 2.35292 160.381 0.890145C160.922 0.351228 161.492 1.42906 162.148 0.842027C162.426 0.591816 164.627 0.813156 164.627 1.18847C164.606 1.89099 164.114 1.69852 163.694 2.85334C163.43 3.58473 164.463 3.67134 167.656 4.44122C168.724 4.69143 168.461 5.05712 170.442 4.90315C170.855 4.19101 170.769 2.55501 170.263 2.45878C169.38 2.28555 168.119 0.611063 171.767 2.17007C172.323 2.26631 173.014 2.27593 172.843 3.13242C172.8 3.31527 172.586 5.23997 172.907 5.23997H175.201C176.519 6.55839 176.27 6.67387 177.609 6.09646C177.916 4.8839 176.313 5.05712 176.27 4.30649C176.263 4.1044 176.847 4.05628 177.773 3.9023C178.18 3.35376 178.636 3.71946 179.07 3.71946C179.384 3.71946 179.576 4.54708 179.384 4.68181C178.785 5.09562 177.531 5.51905 179.07 6.20232C179.658 6.09776 180.252 6.05913 180.844 6.08684C180.82 6.0025 180.781 5.92761 180.73 5.86884C180.679 5.81007 180.618 5.76925 180.552 5.75002C180.089 5.55755 180.631 5.24959 181.265 5.24959C181.344 5.12035 181.444 5.01873 181.558 4.95338C181.673 4.88804 181.797 4.8609 181.92 4.87428C182.555 4.96211 183.195 4.96211 183.83 4.87428C184.35 3.84456 184.77 5.64416 184.991 5.71152C185.212 5.77889 185.818 5.56717 186.21 5.65378C187.385 5.91362 187.435 4.54708 188.461 5.05712C189.366 5.49981 189.48 4.98976 189.323 6.01947C189.167 7.04919 189.879 6.71237 189.879 5.97136C189.843 5.78851 189.737 5.69228 189.844 5.42282C189.95 5.15336 190.805 5.11486 191.518 5.36508C192.466 5.69228 193.064 5.36508 193.292 6.32743C193.321 6.42366 193.42 6.49103 193.492 6.54877C194.418 7.28978 193.734 8.27138 195.629 8.38686C197.859 8.52159 198.394 8.32912 198.786 7.92493C199.178 7.52074 199.961 7.5015 200.353 6.85672C200.582 6.50493 200.89 6.26477 201.23 6.17345C201.397 6.14627 201.554 6.04865 201.678 5.89437C202.191 4.98976 202.918 5.27846 203.282 5.15336C205.597 4.33536 207.079 5.92324 208.675 5.15336C209.595 4.71068 210.471 5.55755 211.184 6.34667C211.354 6.52691 211.466 6.78887 211.497 7.07806C212.167 7.22241 212.466 7.36677 212.302 6.32743C212.252 6.01947 212.381 5.30734 211.789 5.24959C211.483 5.22072 211.54 5.39395 211.212 5.13411V4.35461C211.404 4.12364 211.632 4.21026 211.925 4.21026C213.328 3.99854 213.129 5.18223 213.898 5.42282C214.426 5.58642 214.939 4.93202 215.466 5.36508H216.948C217.596 5.38432 217.96 3.29602 219.385 4.64331C219.481 4.61255 219.581 4.60919 219.678 4.63343C219.775 4.65767 219.868 4.70899 219.95 4.78412C220.031 4.85926 220.101 4.95656 220.153 5.06983C220.205 5.1831 220.24 5.30987 220.254 5.44206C220.347 5.80776 221.536 5.84625 221.593 5.56717C221.829 4.48934 222.441 5.51905 222.798 4.36423C222.833 4.20063 222.655 4.04666 222.798 3.9023C222.799 3.932 222.806 3.96079 222.817 3.98617C222.829 4.01154 222.845 4.03273 222.864 4.04791C222.883 4.06308 222.904 4.07177 222.926 4.07323C222.948 4.07469 222.97 4.06887 222.99 4.05628C223.382 3.9023 223.824 4.4316 224.094 3.63284C224.094 3.62322 224.173 3.63284 224.173 3.69059C224.156 3.71119 224.143 3.73789 224.137 3.76757C224.073 3.97929 223.988 3.82531 223.931 4.20063C224.208 4.31611 224.315 4.31611 224.002 4.97051C223.926 5.40678 224.026 5.67303 224.301 5.76926C224.486 5.47093 224.679 5.42282 224.892 5.7019C225.363 5.49981 225.747 5.46131 225.605 4.73955C225.562 4.52783 225.997 4.30649 225.997 4.73955C225.975 5.78851 226.04 5.33621 226.859 5.42282C227.963 5.54792 228.049 5.73077 228.355 5.28809C228.491 5.09562 228.384 5.01863 228.099 4.53745C227.864 4.46047 226.488 4.77804 226.674 3.81569C226.945 2.42991 226.731 2.67049 227.814 2.42991C227.765 1.81282 228.06 2.24037 227.835 2.2652C227.916 2.26293 227.997 2.28393 228.072 2.32694C228.154 2.37366 228.226 2.44512 228.284 2.53576C229.011 2.55501 229.232 2.4684 229.274 2.98807C229.752 3.96967 229.709 4.38348 231.177 2.92071C231.718 2.38179 232.288 3.45962 232.944 2.87259C233.222 2.62238 235.424 2.84372 235.424 3.21903C235.402 3.92155 234.91 3.72908 234.49 4.8839C234.226 5.61529 235.26 5.7019 238.452 6.47178C239.521 6.72199 239.257 7.08768 241.238 6.93371C241.651 6.22157 241.565 4.58557 241.06 4.48934C240.176 4.31611 238.915 2.64162 242.563 4.20063C243.119 4.29687 243.81 4.30649 243.639 5.16298C243.596 5.34583 243.382 7.27053 243.703 7.27053H245.997C247.315 8.58895 247.066 8.70443 248.406 8.12702C248.712 6.91446 247.109 7.08768 247.066 6.33705C247.059 6.13496 247.643 6.08684 248.57 5.93286C248.976 5.38432 249.432 5.75002 249.866 5.75002C250.18 5.75002 250.372 6.57764 250.18 6.71237C249.581 7.12618 248.327 7.54961 249.866 8.23288C250.743 7.94418 252.802 8.4446 252.089 7.61698C251.847 7.34752 252.367 6.83747 252.731 6.91446C253.366 7.00229 254.005 7.00229 254.64 6.91446C255.182 5.84625 255.545 7.60735 255.766 7.67472C255.987 7.74208 256.593 7.53037 256.984 7.61698C258.16 7.87681 258.21 6.51027 259.236 7.02032C260.141 7.463 260.255 6.95296 260.098 7.98267C259.941 9.01239 260.654 8.67556 260.654 7.93455C260.618 7.75171 260.511 7.65547 260.618 7.38601C260.725 7.11655 261.58 7.07806 262.293 7.32827C263.24 7.65547 263.839 7.32827 264.067 8.29062C264.095 8.38686 264.195 8.45422 264.266 8.51196C265.193 9.25297 264.509 10.2346 266.404 10.3501C268.634 10.4848 269.169 10.2923 269.56 9.88812C269.952 9.48394 270.736 9.46469 271.128 8.81992C271.356 8.46813 271.665 8.22797 272.004 8.13665C272.172 8.10947 272.329 8.01184 272.453 7.85756C272.966 6.95295 273.693 7.24166 274.056 7.11656C276.372 6.29856 277.854 7.88644 279.45 7.11656C280.369 6.67387 281.246 7.52074 281.958 8.30987C282.329 8.72368 282.25 9.08937 282.457 10.4463C282.956 13.7856 283.191 15.8547 284.01 18.2798Z" fill="#2B64E2"/>
<path fill-rule="evenodd" clip-rule="evenodd" d="M236.036 78.6481C234.96 78.8694 233.628 78.3979 233.108 78.7636C233.052 78.7969 232.99 78.81 232.929 78.8016C232.867 78.7932 232.809 78.7635 232.759 78.7155C232.467 78.3498 232.246 78.6385 231.982 78.8021C231.013 79.4084 231.448 77.9071 230.101 77.9167C227.85 77.9167 227.415 77.4933 227.479 78.2247C227.622 80.005 235.124 79.8126 236.257 79.1293C236.428 79.0234 236.15 78.6289 236.036 78.6481Z" fill="#2B64E2"/>
<path fill-rule="evenodd" clip-rule="evenodd" d="M224.18 3.64246C224.23 3.78681 224.223 3.64246 224.18 3.64246V3.64246Z" fill="#2B64E2"/>
<path fill-rule="evenodd" clip-rule="evenodd" d="M99.8306 7.26092C99.7023 7.0107 99.5171 6.83748 99.1181 7.2128C99.3461 7.44376 99.5883 7.69397 99.8306 7.26092Z" fill="#2B64E2"/>
<path fill-rule="evenodd" clip-rule="evenodd" d="M100.215 7.56895C100.344 7.56895 103.778 7.07815 100.251 6.97229C99.6098 6.95305 99.9233 7.69406 100.215 7.56895Z" fill="#2B64E2"/>
<path fill-rule="evenodd" clip-rule="evenodd" d="M102.132 7.01072C101.847 7.28018 101.769 7.14545 102.047 7.37641C102.324 7.60738 102.51 7.37641 102.702 7.25131C102.503 7.14545 102.36 6.799 102.132 7.01072Z" fill="#2B64E2"/>
<path fill-rule="evenodd" clip-rule="evenodd" d="M99.1038 7.21272C99.0397 7.15498 98.94 7.08762 98.9328 7.21272C98.9257 7.33783 98.9471 7.34745 99.1038 7.21272Z" fill="#2B64E2"/>
<path fill-rule="evenodd" clip-rule="evenodd" d="M140.423 78.6096C140.423 78.6096 140.252 78.6962 140.252 78.754C140.158 79.5615 139.912 80.3233 139.539 80.9674C140.437 80.5247 142.247 80.9674 142.112 80.2071C141.976 79.4469 141.791 79.7933 140.423 78.6096Z" fill="#2B64E2"/>
<path fill-rule="evenodd" clip-rule="evenodd" d="M144.826 77.6954C144.278 77.9264 144.292 77.6954 143.644 76.9833C143.259 76.5695 142.667 77.2143 142.86 77.3105C143.33 77.5511 143.002 78.013 142.938 78.5616C142.938 78.8118 143.123 79.1294 143.245 78.985C143.693 78.4365 144.121 78.5712 145.14 78.5712C145.411 78.5712 145.268 77.5126 144.826 77.6954Z" fill="#2B64E2"/>
<path fill-rule="evenodd" clip-rule="evenodd" d="M104.512 79.7836C105.118 79.4661 103.657 78.5133 102.859 79.8606C102.812 79.9479 102.779 80.0478 102.764 80.1536C102.748 80.2593 102.749 80.3684 102.767 80.4735C102.786 80.5785 102.821 80.677 102.87 80.7622C102.918 80.8474 102.981 80.9174 103.051 80.9673C103.842 81.3234 105.082 80.8518 104.476 80.592C104.389 80.5716 104.31 80.5103 104.252 80.4188C104.195 80.3273 104.163 80.2115 104.163 80.0916C104.156 79.697 104.384 79.8702 104.512 79.7836Z" fill="#2B64E2"/>
<path fill-rule="evenodd" clip-rule="evenodd" d="M128.153 79.3987C128.239 80.1205 128.275 81.1021 128.624 80.8423C128.773 80.6593 128.883 80.4244 128.941 80.1631C128.999 79.9018 129.002 79.6241 128.951 79.3602C128.745 78.7443 128.096 78.9079 128.153 79.3987Z" fill="#2B64E2"/>
<path fill-rule="evenodd" clip-rule="evenodd" d="M95.7266 7.26087C95.7266 7.12614 95.5128 7.16463 94.4013 7.14539C93.6389 7.14539 95.8334 7.79978 95.7266 7.26087Z" fill="#2B64E2"/>
<path fill-rule="evenodd" clip-rule="evenodd" d="M136.326 80.1396C135.528 79.8221 134.986 81.3426 136.326 80.6978C136.483 80.6401 136.511 80.2166 136.326 80.1396Z" fill="#2B64E2"/>
<path fill-rule="evenodd" clip-rule="evenodd" d="M124.042 75.8187C124.042 75.8187 123.985 75.8187 123.949 75.7706C123.793 75.7032 123.892 76.0304 124.035 75.8861C124.035 76.0882 123.714 77.089 124.441 76.9543C124.476 76.9298 124.506 76.8941 124.528 76.8506C124.55 76.807 124.565 76.7567 124.569 76.7041C124.505 76.2518 124.078 76.3288 124.042 75.8187Z" fill="#2B64E2"/>
<path fill-rule="evenodd" clip-rule="evenodd" d="M120.415 76.6753C120.457 76.59 120.474 76.4877 120.465 76.3866C119.824 75.6841 119.667 76.5502 119.959 76.733H119.674C119.407 76.6075 119.123 76.5583 118.841 76.5887C118.534 76.6945 118.207 76.4347 117.865 76.5887C117.152 76.8774 115.684 76.4924 115.157 76.6464C114.835 76.6872 114.512 76.5931 114.231 76.377C114.102 76.3096 113.939 76.9351 116.432 76.9159C117.601 76.9159 122.218 77.8782 123.159 77.195C122.681 76.9062 122.097 77.0987 120.259 76.8389C120.322 76.8081 120.377 76.7508 120.415 76.6753V76.6753Z" fill="#2B64E2"/>
<path fill-rule="evenodd" clip-rule="evenodd" d="M116.14 76.175C116.062 75.5398 115.691 75.3762 115.613 76.175C115.556 76.6754 116.212 76.7427 116.14 76.175Z" fill="#2B64E2"/>
<path fill-rule="evenodd" clip-rule="evenodd" d="M60.8199 82.6707C60.7702 82.5264 60.7773 82.6707 60.8199 82.6707V82.6707Z" fill="#2B64E2"/>
</svg>
