<svg width="1545" height="180" viewBox="0 0 1545 180" fill="none" xmlns="http://www.w3.org/2000/svg">
<mask id="mask0" mask-type="alpha" maskUnits="userSpaceOnUse" x="0" y="0" width="1545" height="180">
<rect width="1545" height="180" fill="#C4C4C4"/>
</mask>
<g mask="url(#mask0)">
<path d="M170.36 161.086C173.491 157.193 181.153 162.534 184.249 159.429C189.912 153.96 193.265 154.059 200.512 155.513C207.351 149.901 214.576 160.014 221.322 155.389C225.347 156.707 229.36 148.516 233.792 152.704C236.936 158.385 235.891 159.377 238.156 154.304C242.678 163.342 243.8 155.92 250.396 155.826C255.026 150.825 262.529 158.828 267.015 155.996C270.591 158.447 273.57 161.577 276.164 152.359C280.674 153.495 284.205 150.602 291.028 146.236C296.975 145.512 303.966 150.518 310.161 146.046C316.318 150.691 316.917 140.83 321.794 144.64C325.678 149.079 330.156 140.181 333.574 141.95C337.41 147.702 336.981 135.028 342.027 137.291C343.564 143.035 349.864 135.377 350.801 137.505C354.843 135.084 359.02 131.904 363.047 137.486C368.739 132.77 368.666 138.446 373.009 140.375C381.09 143.011 394.852 135.586 402.837 134.094C405.8 132.888 408.844 131.892 411.947 131.114C412.535 131.665 413.194 132.135 413.906 132.513C413.821 131.928 413.798 131.335 413.836 130.745L415.705 130.672C417.615 132.499 420.387 137.048 421.292 137.537C424.18 145.065 425.636 133.596 428.551 135.941C441.852 130.995 442.587 142.246 450.869 149.17C454 145.276 461.661 150.617 464.757 147.512C470.42 142.044 473.773 142.142 481.02 143.597C487.86 137.984 495.084 148.097 501.831 143.472C503.726 144.087 505.608 142.669 507.526 141.348C510.107 142.307 512.802 142.929 515.544 143.198C517.048 146.419 516.825 146.592 518.264 143.092L519.084 143.06C523.259 150.767 524.531 143.831 530.899 143.779C535.529 138.777 543.032 146.78 547.518 143.949C551.094 146.4 554.073 149.53 556.667 140.312C559.984 141.166 562.884 139.774 566.92 137.189C570.699 137.956 574.279 139.49 577.438 141.697C585.661 137.047 593.914 143.217 601.934 141.789C603.23 139.705 605.085 138.025 607.289 136.942C609.493 135.859 611.957 135.415 614.401 135.661L614.497 130.575C617.936 134.539 617.489 123.112 622.464 125.246C624.002 130.99 630.302 123.333 631.239 125.46C635.281 123.04 639.457 119.859 643.484 125.441C649.177 120.726 649.103 126.402 653.447 128.331C661.528 130.966 675.289 123.542 683.275 122.049C690.328 119.379 697.54 116.572 704.284 120.277C713.113 116.849 722.503 120.22 731.209 121.192C739.914 122.163 748.744 129.688 757.097 121.622C764.857 118.565 770.908 123.87 776.723 125.643C778.174 127.275 779.843 128.699 781.682 129.876C780.91 121.872 787.589 134.007 789.098 134.8C791.986 142.328 793.441 130.859 796.357 133.205C809.657 128.258 810.392 139.51 818.674 146.433C821.805 142.54 829.467 147.881 832.563 144.775C838.226 139.307 841.579 139.406 848.826 140.86C855.665 135.248 862.889 145.361 869.636 140.736C873.66 142.054 877.674 133.863 882.106 138.051C885.25 143.732 884.205 144.724 886.469 139.651C890.992 148.689 892.114 141.267 898.709 141.173C903.34 136.172 910.843 144.175 915.329 141.343C918.905 143.794 921.883 146.924 924.478 137.706C928.987 138.842 932.519 135.949 939.341 131.583C945.288 130.859 952.28 135.865 958.475 131.393C964.632 136.038 965.231 126.177 970.108 129.987C973.991 134.426 978.47 125.528 981.888 127.297C985.724 133.049 985.294 120.375 990.34 122.638C991.878 128.382 998.178 120.724 999.115 122.852C1003.16 120.431 1007.33 117.251 1011.36 122.833C1017.05 118.117 1016.98 123.793 1021.32 125.722C1029.4 128.358 1043.17 120.933 1051.15 119.441C1054.11 118.235 1057.16 117.239 1060.26 116.461C1060.85 117.012 1061.51 117.482 1062.22 117.86C1062.14 117.275 1062.11 116.682 1062.15 116.092L1064.02 116.019C1065.93 117.846 1068.7 122.395 1069.61 122.884C1072.49 130.412 1073.95 118.943 1076.86 121.288C1090.17 116.341 1090.9 127.593 1099.18 134.517C1102.31 130.623 1109.97 135.964 1113.07 132.859C1118.73 127.391 1122.09 127.489 1129.33 128.944C1136.17 123.331 1143.4 133.444 1150.14 128.819C1152.04 129.434 1153.92 128.016 1155.84 126.695C1158.42 127.654 1161.12 128.276 1163.86 128.545C1165.36 131.766 1165.14 131.939 1166.58 128.439L1167.17 128.416C1171.34 136.156 1172.62 129.187 1178.98 129.135C1183.61 124.133 1191.12 132.136 1195.6 129.305C1199.18 131.756 1202.16 134.886 1204.75 125.668C1208.07 126.522 1210.97 125.13 1215 122.545C1218.78 123.312 1222.36 124.846 1225.52 127.053C1233.75 122.403 1242 128.573 1250.02 127.145C1251.31 125.061 1253.17 123.381 1255.37 122.298C1257.58 121.215 1260.04 120.771 1262.48 121.017L1262.58 115.93C1266.02 119.895 1265.57 108.468 1270.55 110.602C1272.09 116.346 1278.39 108.689 1279.32 110.816C1283.36 108.396 1287.54 105.215 1291.57 110.797C1297.26 106.081 1297.19 111.758 1301.53 113.686C1309.61 116.322 1323.37 108.897 1331.36 107.405C1338.41 104.735 1345.62 101.928 1352.37 105.633C1361.2 102.205 1370.59 105.576 1379.29 106.548C1388 107.519 1396.83 115.044 1405.18 106.978C1414.07 103.352 1420.73 110.961 1427.36 111.522C1433.99 113.132 1440.72 117.558 1449.3 116.01C1457.75 113.023 1465.39 116.889 1473.87 114.558C1484.54 108.697 1495.19 107.493 1505.82 114.686C1514.04 110.036 1522.29 116.206 1530.31 114.778C1531.61 112.693 1533.46 111.014 1535.67 109.931C1537.87 108.848 1540.33 108.404 1542.78 108.65L1543.46 -72.1632L1545.45 -441.127L1546.27 -620.929C1545.36 -621.014 1544.46 -621.187 1543.59 -621.448C1538.23 -618.254 1532.48 -628.588 1527.24 -619.857C1522.24 -620.908 1518.93 -615.565 1514.13 -614.852C1510.54 -622.943 1507.15 -611.989 1503.19 -613.474C1496.47 -609.932 1494.69 -614.093 1489.72 -608.586C1485.01 -602.433 1478.27 -603.35 1473.72 -603.927C1472.04 -600.952 1470.81 -597.743 1470.09 -594.406C1470.02 -594.559 1469.9 -594.683 1469.74 -594.753C1466.42 -582.293 1455.04 -587.882 1441.33 -587.641C1430.86 -593.332 1420.79 -588.904 1410.41 -584.957C1402.17 -583.914 1393.16 -585.201 1384.83 -584.908C1379.79 -591.27 1376.14 -572.927 1371.64 -586.393C1364.5 -580.178 1363.66 -597.329 1355.9 -589.385C1351.18 -588.249 1347.12 -597.305 1342.5 -591.025C1337.57 -591.226 1332.05 -589.764 1327.07 -591.012C1318.95 -597.09 1310.66 -590.928 1302.64 -591.139C1291.79 -593.995 1281.34 -582.666 1270.57 -592.739C1263.25 -593.567 1255.57 -599.99 1249.73 -596.679C1244.82 -603.931 1243.11 -601.503 1237.07 -603.136C1231.46 -608.82 1224.3 -605.588 1217.95 -607.472C1211.36 -608.231 1201.97 -610.782 1195.91 -606.971C1189.67 -609.613 1188.46 -600.121 1181.32 -604.761C1168.85 -602.011 1158.81 -615.293 1150.94 -600.917C1149.49 -601.779 1147.7 -605.578 1145.4 -596.437C1141.13 -600.697 1133.27 -588.454 1128.59 -596.338C1117.68 -595.091 1109.14 -590.035 1098.5 -591.882C1087.71 -592.444 1077.71 -591.07 1066.83 -590.644C1055.98 -599.533 1044.75 -593.487 1033.99 -590.771C1030.8 -592.152 1027.33 -592.799 1023.86 -592.663C1020.38 -592.527 1016.97 -591.612 1013.9 -589.985C1015.89 -586.062 1007.39 -588.452 1004.13 -587.964C997.984 -588.051 983.794 -585.693 969.485 -587.232L967.78 -586.346C963.986 -591.018 962.046 -589.401 956.611 -590.697C951.004 -596.381 943.842 -593.149 937.498 -595.033C930.902 -595.791 921.51 -598.343 915.454 -594.532C909.211 -597.173 908.007 -587.682 900.865 -592.322C889.244 -589.769 879.773 -601.073 872.148 -591.199C869.95 -596.196 867.832 -599.983 866.038 -599.683C862.439 -607.774 859.058 -596.82 855.093 -598.304C848.37 -594.762 846.599 -598.923 841.626 -593.417C836.909 -587.264 830.176 -588.181 825.623 -588.757C823.954 -585.789 822.73 -582.592 821.988 -579.269V-579.269C821.914 -579.41 821.794 -579.522 821.647 -579.584L821.659 -579.289C820.475 -579.339 819.297 -579.468 818.131 -579.676C807.34 -580.238 797.347 -578.864 786.464 -578.438C775.61 -587.327 764.388 -581.281 753.627 -578.565C750.433 -579.946 746.968 -580.593 743.49 -580.457C740.012 -580.321 736.609 -579.406 733.532 -577.779C735.524 -573.856 727.025 -576.246 723.761 -575.758C721.532 -575.67 718.188 -575.54 714.164 -575.186C712.634 -576.536 710.809 -577.022 708.401 -574.796L704.86 -574.658C701.318 -576.257 698.048 -580.95 694.405 -575.889C689.472 -576.09 683.948 -574.627 678.974 -575.876C670.857 -581.953 662.562 -575.792 654.542 -576.003C643.695 -578.858 633.238 -567.529 622.469 -577.602C615.148 -578.431 607.477 -584.854 601.631 -581.543C596.751 -588.796 595.038 -586.433 588.935 -587.998C583.329 -593.682 576.166 -590.451 569.822 -592.334C563.226 -593.093 553.835 -595.644 547.779 -591.833C541.536 -594.475 540.331 -584.983 533.189 -589.623C520.722 -586.873 510.682 -600.155 502.806 -585.779C501.361 -586.641 499.57 -590.44 497.268 -581.3C492.998 -585.56 485.137 -573.316 480.462 -581.2C469.545 -579.954 461.01 -574.898 450.366 -576.744C439.575 -577.306 429.582 -575.932 418.699 -575.506C407.845 -584.395 396.623 -578.349 385.862 -575.633C382.668 -577.014 379.203 -577.661 375.725 -577.525C372.247 -577.389 368.844 -576.474 365.767 -574.847C367.759 -570.924 359.26 -573.314 355.996 -572.826C349.853 -572.914 335.664 -570.555 321.355 -572.095L319.649 -571.208C315.855 -575.88 313.916 -574.263 308.48 -575.559C302.874 -581.243 295.712 -578.011 289.367 -579.895C282.771 -580.654 273.38 -583.205 267.324 -579.394C261.081 -582.036 259.876 -572.544 252.734 -577.184C240.267 -574.434 230.227 -587.716 222.351 -573.34C220.906 -574.202 219.116 -578.001 216.813 -568.861C212.537 -573.284 204.681 -560.91 200 -568.958C189.083 -567.711 180.547 -562.655 169.903 -564.502C159.112 -565.064 149.12 -563.689 138.236 -563.264C127.382 -572.153 116.161 -566.106 105.399 -563.39C102.205 -564.772 98.7408 -565.418 95.2626 -565.282C91.7843 -565.146 88.381 -564.231 85.3043 -562.605C87.2962 -558.682 78.7979 -561.071 75.5338 -560.583C69.3908 -560.671 55.2012 -558.313 40.8921 -559.852C23.92 -550.564 20.2188 -553.699 6.19452 -559.709L1.01502 -559.507L0.102437 -379.602L-1.35186 -64.8987L-2.16865 114.936C-1.2307 113.006 0.121341 111.305 1.79143 109.955C3.46151 108.605 5.40867 107.639 7.49458 107.126C9.58049 106.612 11.754 106.564 13.8607 106.984C15.9673 107.404 17.9555 108.282 19.684 109.556C40.8652 109.679 44.6356 114.582 51.1728 109.637C57.7356 116.267 51.2483 111.569 59.288 112.304C60.9746 115.976 75.4551 119.378 80.0517 114.345C85.0989 125.035 81.9505 118.403 89.0177 118.619C92.9264 118.663 93.7676 112.465 100.629 120.854C105.7 120.737 110.741 121.655 115.443 123.554C114.919 123.574 115.163 122.253 115.752 131.445C121.62 131.216 129.952 142.794 133.46 144.362C132.688 136.358 139.367 148.492 140.876 149.286C143.764 156.814 145.22 145.345 148.135 147.69C161.441 142.874 162.176 154.126 170.36 161.086Z" fill="white"/>
</g>
</svg>
