<svg width="95" height="75" viewBox="0 0 95 75" fill="none" xmlns="http://www.w3.org/2000/svg">
<path d="M94.5834 9.3417C91.0443 10.8227 87.3016 11.8018 83.4717 12.2484C87.5123 9.91995 90.5402 6.25692 91.9938 1.93879C88.1968 4.11907 84.0403 5.65522 79.705 6.48045C76.8073 3.44922 72.9484 1.43147 68.7337 0.743654C64.519 0.0558413 60.1868 0.736873 56.4166 2.67994C52.6464 4.623 49.6514 7.7182 47.9014 11.4801C46.1513 15.242 45.7452 19.4578 46.7467 23.4663C39.0694 23.0917 31.5597 21.1634 24.7054 17.8067C17.851 14.45 11.8054 9.73998 6.96127 3.98254C5.26221 6.84455 4.36942 10.0857 4.37169 13.3838C4.36566 16.4466 5.14488 19.4633 6.63995 22.1654C8.13503 24.8674 10.2996 27.171 12.9409 28.8709C9.87091 28.7903 6.86657 27.9957 4.18335 26.5546L4.18335 26.7817C4.20636 31.0731 5.76533 35.2251 8.59654 38.5354C11.4278 41.8457 15.3574 44.1111 19.7209 44.9484C18.0412 45.4414 16.2973 45.7014 14.5417 45.7205C13.3264 45.7068 12.1142 45.6005 10.9163 45.4025C12.1588 49.0941 14.5635 52.3202 17.7955 54.6319C21.0275 56.9437 24.9263 58.2262 28.9492 58.3009C22.156 63.4569 13.769 66.2708 5.12502 66.2942C3.55119 66.2992 1.97861 66.2082 0.416687 66.0217C9.24212 71.5183 19.5269 74.4361 30.0321 74.4238C37.2815 74.4964 44.4732 73.1749 51.1872 70.5365C57.9012 67.8981 64.0028 63.9956 69.1358 59.057C74.2687 54.1185 78.33 48.2428 81.0825 41.7733C83.8349 35.3038 85.2234 28.37 85.1667 21.3771C85.1667 20.605 85.1667 19.7875 85.1667 18.97C88.8613 16.3123 92.0478 13.0542 94.5834 9.3417V9.3417Z" fill="#FF297A"/>
</svg>
