<svg width="30" height="29" viewBox="0 0 30 29" fill="none" xmlns="http://www.w3.org/2000/svg">
<path d="M27.5 7.00833C26.5604 7.40236 25.5668 7.66284 24.55 7.78166C25.6227 7.16217 26.4266 6.18761 26.8125 5.03874C25.8044 5.61882 24.701 6.02752 23.55 6.24708C22.7807 5.4406 21.7562 4.90377 20.6373 4.72077C19.5183 4.53778 18.3682 4.71897 17.3672 5.23593C16.3663 5.75289 15.5712 6.57639 15.1066 7.57725C14.6419 8.57812 14.5341 9.69976 14.8 10.7662C12.7618 10.6666 10.7681 10.1536 8.94832 9.26049C7.12859 8.36742 5.52356 7.11429 4.2375 5.58249C3.78642 6.34395 3.5494 7.20628 3.55 8.08374C3.5484 8.89862 3.75527 9.70124 4.15219 10.4201C4.54912 11.139 5.12377 11.7519 5.825 12.2042C5.00997 12.1827 4.21236 11.9713 3.5 11.5879L3.5 11.6483C3.50611 12.7901 3.91999 13.8947 4.67164 14.7755C5.42329 15.6562 6.46657 16.2589 7.625 16.4817C7.17907 16.6128 6.71609 16.682 6.25 16.6871C5.92736 16.6834 5.60553 16.6552 5.2875 16.6025C5.61739 17.5846 6.25578 18.443 7.11384 19.058C7.97191 19.6731 9.00697 20.0143 10.075 20.0342C8.2715 21.4059 6.04485 22.1546 3.75 22.1608C3.33217 22.1622 2.91467 22.1379 2.5 22.0883C4.84304 23.5507 7.57352 24.327 10.3625 24.3237C12.2871 24.3431 14.1964 23.9915 15.9789 23.2895C17.7614 22.5875 19.3813 21.5493 20.744 20.2353C22.1067 18.9214 23.185 17.3582 23.9157 15.6369C24.6464 13.9157 25.0151 12.0709 25 10.2104C25 10.005 25 9.78749 25 9.56999C25.9809 8.86289 26.8268 7.99605 27.5 7.00833Z" fill="white"/>
</svg>
