<svg width="30" height="29" viewBox="0 0 30 29" fill="none" xmlns="http://www.w3.org/2000/svg">
<path d="M28.75 11.7329C28.8118 10.0034 28.4205 8.28677 27.6125 6.7425C27.0643 6.10885 26.3034 5.68124 25.4625 5.53417C21.9844 5.2291 18.4919 5.10406 15 5.15959C11.5208 5.10154 8.04089 5.22254 4.575 5.52209C3.88978 5.64258 3.25565 5.95327 2.75 6.41625C1.625 7.41917 1.5 9.135 1.375 10.585C1.19364 13.1921 1.19364 15.8079 1.375 18.415C1.41117 19.2311 1.53687 20.0412 1.75 20.8317C1.90072 21.442 2.20566 22.0066 2.6375 22.475C3.14659 22.9625 3.79548 23.2909 4.5 23.4175C7.1949 23.7391 9.91028 23.8723 12.625 23.8163C17 23.8767 20.8375 23.8163 25.375 23.4779C26.0968 23.3591 26.764 23.0303 27.2875 22.5354C27.6375 22.197 27.8989 21.7827 28.05 21.3271C28.497 20.0011 28.7166 18.6133 28.7 17.2188C28.75 16.5421 28.75 12.4579 28.75 11.7329ZM12.175 17.9438L12.175 10.4642L19.575 14.2221C17.5 15.3338 14.7625 16.5904 12.175 17.9438Z" fill="white"/>
</svg>
